# vtk DataFile Version 4.2
vtk output
ASCII
DATASET UNSTRUCTURED_GRID
POINTS 1210 float
1.97000E-06 -6.66100E-06 1.14109E-05 -3.00006E-08 -3.70900E-06 1.75906E-05 -3.15000E-07 -1.10380E-05 2.10476E-05 
2.14400E-06 -6.46700E-06 1.71155E-05 -2.99900E-06 -1.23700E-06 1.04936E-05 -9.31999E-07 -7.29000E-06 6.15040E-06 
-8.40009E-08 -9.95400E-06 7.19350E-06 -9.87000E-07 -4.13900E-06 7.24240E-06 2.86300E-06 -1.16180E-05 1.56018E-05 
1.66900E-06 -1.14990E-05 1.88116E-05 -4.80700E-06 -1.51550E-05 2.07525E-05 -9.06800E-06 -3.48500E-06 1.96634E-05 
-2.91400E-06 -9.13200E-06 5.12400E-06 3.10300E-06 -8.59000E-06 1.38820E-05 1.21100E-06 -1.45990E-05 1.13008E-05 
1.96700E-06 -1.41290E-05 1.39578E-05 -2.01600E-06 -1.77140E-05 1.22596E-05 -7.74300E-06 -8.36000E-07 1.53125E-05 
-1.34990E-05 -1.14050E-05 1.79061E-05 -1.49630E-05 -9.97900E-06 1.38914E-05 -6.15000E-07 -1.57990E-05 9.64500E-06 
-1.63500E-06 -1.73900E-05 1.61664E-05 -1.28000E-07 -1.33220E-05 1.99841E-05 -1.00640E-05 -1.51500E-06 1.36944E-05 
-1.00380E-05 -2.17200E-06 1.72405E-05 -6.29000E-06 -7.91800E-06 2.27810E-05 -2.83100E-06 -1.91900E-06 1.74851E-05 
1.68300E-06 -4.95900E-06 1.38869E-05 -8.52700E-06 -4.79200E-06 5.92200E-06 -5.52100E-06 -1.11740E-05 4.00800E-06 
-6.52800E-06 -1.54670E-05 6.99830E-06 -3.42000E-06 -1.67280E-05 9.01660E-06 2.70600E-06 -9.35100E-06 1.71709E-05 
-3.99200E-06 -1.82730E-05 1.43364E-05 -2.52800E-06 -1.29930E-05 2.16261E-05 -1.91100E-06 -1.58440E-05 1.93324E-05 
-3.02400E-06 -1.00760E-05 2.25335E-05 -1.43860E-05 -7.77300E-06 1.02826E-05 -1.17150E-05 -5.80200E-06 7.31920E-06 
-9.26300E-06 -1.24100E-05 5.39400E-06 -1.10260E-05 -1.43560E-05 8.11770E-06 -9.03200E-06 -1.71710E-05 1.07614E-05 
-5.41300E-06 -1.79690E-05 1.09771E-05 -1.45110E-05 -6.45200E-06 1.39356E-05 -7.09900E-06 -1.82030E-05 1.44049E-05 
-9.12700E-06 -2.37200E-06 9.21370E-06 -1.40000E-05 -7.16100E-06 1.71048E-05 -9.23600E-06 -9.20000E-06 2.20281E-05 
-1.20480E-05 -1.02290E-05 6.72480E-06 -6.63900E-06 -1.47500E-06 9.71000E-06 -1.29120E-05 -4.11100E-06 1.11480E-05 
-6.24600E-06 -4.22000E-06 2.11974E-05 -6.37500E-06 -1.22020E-05 2.23972E-05 -5.04700E-06 -1.75250E-05 1.79531E-05 
-4.42200E-06 -6.07000E-06 4.85100E-06 -7.77700E-06 -1.52830E-05 2.03104E-05 -1.38760E-05 -1.22140E-05 1.05929E-05 
-1.12020E-05 -1.50480E-05 1.81250E-05 -8.31500E-06 -8.04200E-06 4.20500E-06 -1.22110E-05 -1.53430E-05 1.17238E-05 
1.33700E-06 -7.26100E-06 9.03380E-06 -1.35260E-05 -1.39310E-05 1.45876E-05 -1.20600E-05 -8.11700E-06 2.01057E-05 
-1.06870E-05 -1.67930E-05 1.46593E-05 -1.04750E-05 -1.22800E-05 2.08978E-05 -8.73400E-06 -1.68800E-05 1.74505E-05 
-9.42400E-06 -5.92700E-06 2.12314E-05 9.74000E-07 -1.47980E-05 1.73262E-05 -1.07700E-06 -8.60800E-06 2.16259E-05 
-6.84100E-06 -6.57999E-07 1.23778E-05 3.13001E-07 -1.63870E-05 1.34721E-05 -1.17180E-05 -4.77100E-06 1.88608E-05 
-1.28400E-05 -3.74000E-06 1.56648E-05 -3.02400E-06 -6.40600E-06 2.20691E-05 -4.59900E-06 -7.28000E-07 1.51394E-05 
1.26300E-06 -8.93900E-06 1.96634E-05 1.99200E-06 -9.41900E-06 1.00653E-05 -2.19001E-07 -6.04600E-06 2.02571E-05 
-2.83900E-06 -3.46800E-06 2.00513E-05 -9.88000E-07 -2.23800E-06 1.45085E-05 1.03900E-06 -4.22200E-06 1.05987E-05 
2.51100E-06 -1.18230E-05 1.16758E-05 3.33999E-07 -1.28980E-05 8.14750E-06 -2.83900E-06 -1.33630E-05 6.15680E-06 
-5.31200E-06 -2.61700E-06 7.01570E-06 -6.32200E-06 -1.71200E-06 1.84518E-05 -1.51410E-05 1.92070E-05 -1.54400E-06 
-2.84600E-06 1.99853E-05 5.65700E-06 -9.84999E-07 1.65356E-05 3.19100E-06 -1.57800E-06 1.59109E-05 7.49220E-06 
-1.04730E-05 2.29570E-05 5.41500E-06 -8.89800E-06 2.18005E-05 9.20930E-06 -5.44300E-06 2.07423E-05 8.94170E-06 
-3.54300E-06 1.76488E-05 1.01193E-05 -2.48100E-06 1.35211E-05 9.69870E-06 -3.23900E-06 1.10622E-05 -1.85000E-06 
-8.72600E-06 2.28342E-05 1.51200E-06 -5.67800E-06 1.77400E-05 -3.72300E-06 -7.13300E-06 1.89640E-05 1.19249E-05 
-3.75700E-06 1.42321E-05 -2.76500E-06 -2.49600E-06 1.65408E-05 -6.36999E-07 -1.13010E-05 2.12111E-05 -1.69600E-06 
-1.30690E-05 2.14123E-05 8.25650E-06 -1.11330E-05 1.78123E-05 -4.43800E-06 -8.48600E-06 1.12937E-05 -5.05900E-06 
-8.15000E-06 7.86910E-06 -2.79300E-06 -6.20100E-06 8.74240E-06 9.17550E-06 -5.42900E-06 7.65890E-06 -1.18000E-06 
-1.44760E-05 1.88090E-05 1.02707E-05 -1.17440E-05 1.32773E-05 -5.30600E-06 -9.13200E-06 1.70482E-05 1.30965E-05 
-1.03200E-06 1.27818E-05 1.21800E-06 -1.28420E-05 6.86360E-06 -1.46400E-06 -1.71810E-05 1.89668E-05 2.38300E-06 
-1.39500E-05 1.19470E-05 1.14178E-05 -1.09260E-05 9.79260E-06 1.12079E-05 -1.86200E-05 1.62526E-05 4.85100E-06 
-1.70780E-05 1.53226E-05 9.39360E-06 -1.46220E-05 1.04042E-05 -3.41000E-06 -1.13220E-05 8.86270E-06 -3.83200E-06 
-1.53760E-05 1.50797E-05 -3.59000E-06 -1.89070E-05 1.35272E-05 2.41500E-06 -1.57620E-05 7.78370E-06 7.50006E-08 
-1.00690E-05 1.29338E-05 1.29102E-05 -1.84910E-05 1.25801E-05 6.14760E-06 -7.82000E-06 1.46346E-05 -5.12600E-06 
-4.36000E-06 1.21548E-05 1.06905E-05 -1.64620E-05 1.11730E-05 8.89970E-06 -1.64500E-05 1.94516E-05 6.81600E-06 
-6.36300E-06 7.03950E-06 5.34000E-06 -1.80420E-05 1.60650E-05 1.65999E-07 -3.45300E-06 1.06493E-05 6.85400E-06 
-1.38680E-05 2.20704E-05 2.80200E-06 -1.11950E-05 1.95173E-05 1.17155E-05 -6.14100E-06 2.24445E-05 5.25400E-06 
-1.43400E-06 1.31346E-05 7.14740E-06 -9.25000E-07 1.25032E-05 5.15900E-06 -1.30230E-05 5.90900E-06 5.57000E-06 
-1.79250E-05 9.87810E-06 2.60400E-06 -1.75760E-05 1.19469E-05 -1.01100E-06 -5.98800E-06 1.06440E-05 -3.72700E-06 
-1.69240E-05 9.17040E-06 6.00850E-06 -3.75700E-06 2.01146E-05 1.08900E-06 -1.55710E-05 6.98580E-06 2.94000E-06 
-9.29600E-06 6.93310E-06 8.21410E-06 -1.35690E-05 8.90140E-06 9.13090E-06 -7.41200E-06 2.09495E-05 -1.56200E-06 
-1.29530E-05 1.60919E-05 1.24460E-05 -5.94000E-06 1.43007E-05 1.24979E-05 -2.82000E-06 8.96440E-06 2.45500E-06 
-5.93000E-06 6.18650E-06 2.37100E-06 -1.23420E-05 4.85600E-06 1.93200E-06 -7.55900E-06 9.76500E-06 1.12604E-05 
-1.03670E-05 6.12960E-06 -8.16000E-07 -9.71300E-06 4.97200E-06 3.57000E-06 -8.96100E-06 1.96468E-05 -3.25700E-06 
5.22400E-06 3.70800E-06 3.20800E-06 8.65950E-06 5.72600E-06 1.24113E-05 4.32300E-06 8.99500E-06 3.37200E-06 
5.70300E-06 1.03105E-05 6.11490E-06 5.29900E-06 1.20157E-05 9.29900E-06 6.79140E-06 1.00603E-05 1.32101E-05 
3.17500E-06 1.07827E-05 1.62296E-05 5.96000E-06 6.55880E-06 1.68706E-05 6.82300E-06 1.61900E-06 1.46477E-05 
5.57900E-06 -1.88400E-06 1.10496E-05 -6.30000E-07 1.28599E-05 1.40090E-05 3.26200E-06 2.74100E-06 1.83388E-05 
-2.08100E-06 1.33148E-05 9.99440E-06 -2.79200E-06 5.50300E-06 1.88298E-05 2.91900E-06 -1.58600E-06 1.52598E-05 
-6.76600E-06 -1.56700E-06 9.69340E-06 8.81000E-07 1.07186E-05 1.68771E-05 -4.32300E-06 1.22436E-05 1.05388E-05 
8.36550E-06 1.77200E-06 1.03259E-05 1.19600E-06 6.66640E-06 1.28700E-06 8.08120E-06 8.60230E-06 8.93640E-06 
-6.88200E-06 9.80460E-06 8.57310E-06 -6.55100E-06 7.26250E-06 5.17400E-06 -1.80400E-06 -1.99000E-06 4.48500E-06 
-3.59700E-06 -3.56600E-06 1.10876E-05 -9.11100E-06 6.81860E-06 8.21280E-06 -1.15900E-06 7.37000E-07 1.80357E-05 
-7.55900E-06 2.72100E-06 1.48232E-05 -9.24300E-06 3.37700E-06 8.30320E-06 -7.52000E-06 9.60590E-06 1.13953E-05 
-4.86000E-06 1.48900E-06 2.68000E-06 1.93800E-06 1.03785E-05 3.04200E-06 -5.48700E-06 5.88200E-06 2.55800E-06 
-3.62100E-06 1.08659E-05 6.71660E-06 -5.16200E-06 -2.60700E-06 7.00260E-06 3.69200E-06 1.26226E-05 1.28250E-05 
-1.00600E-06 -2.42800E-06 1.46485E-05 2.55600E-06 1.27011E-05 6.47920E-06 -5.31300E-06 3.03700E-06 1.71281E-05 
-6.87100E-06 -7.30000E-07 1.24344E-05 -6.38700E-06 7.20370E-06 1.60059E-05 1.18000E-06 -4.07100E-06 1.07568E-05 
3.50200E-06 -2.75200E-06 7.04300E-06 -4.94000E-06 -1.19200E-06 4.97400E-06 6.97910E-06 7.68720E-06 5.52500E-06 
-9.03600E-06 5.05800E-06 1.24169E-05 -8.41900E-06 1.10100E-06 1.12527E-05 -4.47600E-06 1.10643E-05 1.41002E-05 
-2.35600E-06 5.51600E-06 1.15300E-06 -4.55300E-06 -7.65000E-07 1.52977E-05 1.39400E-06 7.38830E-06 1.88222E-05 
-2.18500E-06 9.68160E-06 1.74236E-05 -8.09400E-06 3.42300E-06 5.35700E-06 4.52999E-07 3.86300E-06 1.90869E-05 
2.54000E-07 1.82000E-06 1.80500E-06 3.02300E-06 -1.08000E-06 4.48100E-06 -8.40000E-07 1.22593E-05 5.18800E-06 
6.70680E-06 1.26000E-07 6.75450E-06 1.76800E-06 1.36839E-05 1.03440E-05 -2.85700E-06 8.70800E-06 2.44400E-06 
-7.94000E-06 5.00000E-07 6.56760E-06 -1.06500E-06 1.32065E-05 7.29650E-06 -8.45999E-07 -3.92100E-06 7.17360E-06 
8.47980E-06 4.45100E-06 7.27920E-06 -7.82600E-06 3.39200E-06 8.92780E-06 -8.16800E-06 3.39100E-06 5.43700E-06 
-2.21980E-05 7.81340E-06 5.69400E-06 -1.03530E-05 2.24700E-06 1.51310E-05 -1.72010E-05 -8.14000E-07 1.82305E-05 
-1.14080E-05 5.36200E-06 1.47287E-05 -1.67170E-05 -4.98700E-06 2.99700E-06 -1.20250E-05 -1.94001E-07 1.64915E-05 
-1.26110E-05 -1.31000E-07 2.70700E-06 -1.81400E-05 -6.95700E-06 1.34296E-05 -2.41580E-05 6.95710E-06 9.84680E-06 
-9.78800E-06 4.92000E-06 3.70800E-06 -2.15850E-05 -4.33700E-06 1.50724E-05 -2.20420E-05 7.65400E-06 1.30461E-05 
-1.93420E-05 8.93970E-06 1.29875E-05 -1.41720E-05 -6.00999E-07 1.76404E-05 -1.54040E-05 -3.57200E-06 1.69047E-05 
-1.27340E-05 -3.50200E-06 1.56637E-05 -1.25120E-05 7.79490E-06 4.57500E-06 -1.95040E-05 6.82360E-06 2.61400E-06 
-1.54730E-05 8.96830E-06 1.25857E-05 -1.52340E-05 -2.37900E-06 1.48900E-06 -1.59610E-05 2.83500E-06 1.79929E-05 
-2.16250E-05 -1.58300E-06 1.58000E-06 -8.30800E-06 1.11600E-06 1.13529E-05 -1.50740E-05 1.47700E-06 6.08001E-07 
-1.64880E-05 -7.22900E-06 6.17670E-06 -9.47500E-06 1.74000E-06 3.86100E-06 -1.76350E-05 7.88060E-06 1.49841E-05 
-1.68490E-05 4.09700E-06 5.83001E-07 -2.10230E-05 8.93210E-06 1.11699E-05 -1.80390E-05 2.12000E-07 2.34000E-07 
-1.87140E-05 -2.89500E-06 1.34800E-06 -2.04320E-05 -5.08900E-06 3.53900E-06 -1.84720E-05 1.60200E-06 1.82497E-05 
-2.10250E-05 2.79500E-06 1.03400E-06 -1.80650E-05 -4.47600E-06 1.65640E-05 -2.30960E-05 4.86400E-06 3.38400E-06 
-1.69220E-05 9.17020E-06 6.04170E-06 -1.84930E-05 -7.73800E-06 9.71900E-06 -2.07810E-05 6.52030E-06 1.56214E-05 
-2.39740E-05 -2.97900E-06 4.93300E-06 -2.14720E-05 -6.47500E-06 7.30850E-06 -9.26400E-06 6.76860E-06 7.97090E-06 
-2.40720E-05 -3.25300E-06 1.28726E-05 -2.18250E-05 -6.26000E-06 1.14629E-05 -1.46040E-05 -6.26300E-06 1.40962E-05 
-9.99700E-06 -1.51800E-06 1.37259E-05 -2.12770E-05 2.91100E-06 1.72227E-05 -1.15150E-05 -5.32600E-06 1.19380E-05 
-2.53300E-05 4.29600E-06 6.21370E-06 -2.45520E-05 1.33400E-06 3.61600E-06 -1.41930E-05 6.69380E-06 1.54199E-05 
-2.04420E-05 -1.10800E-06 1.75148E-05 -2.59490E-05 3.07800E-06 1.00760E-05 -2.60430E-05 3.50001E-07 7.59340E-06 
-2.37740E-05 -2.96999E-07 1.53926E-05 -1.55480E-05 7.09760E-06 2.71800E-06 -2.56360E-05 6.39994E-08 1.19612E-05 
-2.46110E-05 -3.56400E-06 9.42880E-06 -2.43970E-05 4.29100E-06 1.39286E-05 -2.08760E-05 9.14360E-06 8.32370E-06 
-1.17750E-05 7.61920E-06 1.18847E-05 -9.10800E-06 -2.43900E-06 9.32180E-06 -1.36630E-05 2.71800E-06 1.72512E-05 
-9.16200E-06 4.96200E-06 1.22971E-05 -1.29700E-05 -4.26000E-06 4.01500E-06 -1.76960E-05 9.79590E-06 1.00732E-05 
-1.34620E-05 9.03050E-06 9.05180E-06 -1.17730E-05 -5.70500E-06 7.38880E-06 -1.45410E-05 -7.64000E-06 1.02535E-05 
-1.71660E-05 4.91100E-06 1.74929E-05 -7.98700E-06 6.46000E-07 6.64870E-06 -9.85800E-06 -1.91200E-06 5.70300E-06 
-1.23810E-05 4.58500E-06 1.83900E-06 1.89994E-08 4.52000E-06 -1.55600E-06 -1.50650E-05 1.45300E-06 4.05000E-07 
-4.22300E-06 -7.68600E-06 1.92800E-06 -1.48560E-05 -3.85000E-07 -7.45600E-06 1.17100E-06 -5.80003E-08 -6.32700E-06 
-5.29000E-06 7.55600E-06 -1.10100E-06 4.06000E-07 4.05600E-06 -5.69700E-06 -1.95600E-06 -4.35200E-06 -9.33600E-06 
-7.26400E-06 8.74000E-07 -1.16940E-05 -2.89800E-06 -6.94500E-06 -7.06800E-06 -8.18000E-06 7.61270E-06 -2.68200E-06 
-8.24300E-06 6.66970E-06 5.81000E-07 -1.35510E-05 4.44800E-06 -5.34300E-06 -1.10100E-06 -5.98600E-06 -2.17000E-07 
-1.28170E-05 2.39998E-08 3.11300E-06 -2.76900E-06 -5.04000E-07 -1.09640E-05 -9.60600E-06 4.79300E-06 3.51400E-06 
-7.89300E-06 6.19000E-07 6.45810E-06 -3.01700E-06 5.83400E-06 -7.90300E-06 -1.78200E-06 -5.22500E-06 3.06200E-06 
-1.16200E-05 3.18100E-06 -9.35800E-06 -4.86800E-06 -3.04800E-06 -1.13520E-05 -9.02000E-07 2.49600E-06 -9.30200E-06 
-1.12810E-05 -1.99300E-06 -1.07450E-05 -5.52300E-06 -2.52800E-06 6.81340E-06 -4.55100E-06 -5.89700E-06 4.88400E-06 
-1.01620E-05 2.31700E-06 5.02600E-06 -1.28000E-05 -4.24400E-06 4.07600E-06 -7.86400E-06 -3.84800E-06 -1.13030E-05 
-5.32200E-06 -6.27400E-06 -9.86800E-06 -1.38940E-05 4.16800E-06 -9.92000E-07 -1.22420E-05 4.49700E-06 1.93700E-06 
-7.89800E-06 3.35800E-06 5.29800E-06 -6.15700E-06 -9.18100E-06 4.71000E-07 -1.57170E-05 1.72900E-06 -3.12200E-06 
-3.83200E-06 -7.86700E-06 -1.50300E-06 -6.85200E-06 -9.13400E-06 -6.59700E-06 -9.29700E-06 -6.49100E-06 -9.73700E-06 
-1.65000E-07 -2.21500E-06 -8.30800E-06 -2.27300E-06 6.81100E-06 -3.29500E-06 -6.39100E-06 -9.84900E-06 -1.91900E-06 
-8.21400E-06 -7.93400E-06 4.03200E-06 -1.32260E-05 -5.39700E-06 -8.00400E-06 -1.09210E-05 -8.66400E-06 -6.45800E-06 
-1.64150E-05 -1.63100E-06 -2.64000E-06 -1.53010E-05 -4.40900E-06 -5.13700E-06 -1.33940E-05 -7.95500E-06 -4.16200E-06 
-1.51830E-05 -2.57800E-06 1.43700E-06 -1.51940E-05 -5.68100E-06 -1.31600E-06 -1.00910E-05 -1.00290E-05 -3.30500E-06 
1.82400E-06 6.48000E-07 -2.40700E-06 -1.25120E-05 -8.57800E-06 -2.01000E-07 -1.36920E-05 -6.23600E-06 1.80700E-06 
-7.26200E-06 5.54500E-06 -9.26800E-06 -9.89700E-06 -1.81500E-06 5.91000E-06 -1.00820E-05 6.73770E-06 -6.01000E-06 
-4.21600E-06 3.32700E-06 -1.06740E-05 -9.43800E-06 -9.67800E-06 7.02999E-07 -3.20600E-06 2.86600E-06 4.55200E-06 
-4.54300E-06 -8.53200E-06 -4.86500E-06 -1.12550E-05 -7.54600E-06 3.42000E-06 -2.28800E-06 5.44700E-06 1.06800E-06 
-5.82500E-06 5.91800E-06 2.62400E-06 -4.82600E-06 5.89000E-07 6.26280E-06 -6.04800E-06 7.59720E-06 -5.27900E-06 
-1.72300E-06 -6.17700E-06 -4.20200E-06 -8.57300E-06 -4.90500E-06 5.98300E-06 -1.06110E-05 6.32160E-06 -8.96000E-07 
-6.34000E-07 -4.84500E-06 -6.34000E-06 1.07500E-06 -3.00800E-06 9.88000E-07 2.95000E-07 1.73700E-06 1.80400E-06 
-1.70500E-06 -2.02200E-06 4.53100E-06 1.17300E-06 -3.54000E-06 -3.55000E-06 -3.34600E-06 1.17493E-05 2.48185E-05 
-2.35600E-06 8.52960E-06 2.24640E-05 -3.05700E-06 5.38900E-06 1.88501E-05 -4.88200E-06 8.36220E-06 2.62920E-05 
-8.31000E-06 5.37100E-06 2.66080E-05 -1.84250E-05 5.82600E-06 1.98799E-05 -2.15400E-06 1.31943E-05 2.09534E-05 
-9.07400E-06 1.67390E-05 2.61960E-05 -4.58600E-06 1.56877E-05 2.41247E-05 -6.53200E-06 1.23804E-05 2.75780E-05 
-8.35300E-06 9.15860E-06 2.81600E-05 -1.24790E-05 7.77860E-06 2.78260E-05 -8.43200E-06 2.72900E-06 2.35549E-05 
-1.18700E-05 7.62180E-06 1.17070E-05 -7.34900E-06 1.88377E-05 2.22140E-05 -1.96970E-05 1.12899E-05 1.90078E-05 
-8.04500E-06 1.64300E-06 1.77757E-05 -1.90670E-05 1.17130E-05 1.62517E-05 -1.04770E-05 1.99594E-05 2.01336E-05 
-1.17360E-05 1.91733E-05 2.34154E-05 -1.54790E-05 6.56510E-06 2.56983E-05 -1.35970E-05 1.87800E-06 2.05451E-05 
-1.09820E-05 1.43200E-06 1.81089E-05 -5.64000E-06 1.70474E-05 1.57209E-05 -1.40810E-05 1.63892E-05 2.59008E-05 
-1.36000E-05 1.95918E-05 1.98928E-05 -1.49940E-05 1.81976E-05 2.27883E-05 -1.62830E-05 1.13552E-05 2.63530E-05 
-1.62480E-05 4.02200E-06 2.24954E-05 -1.76980E-05 1.54055E-05 2.29587E-05 -1.50120E-05 1.68634E-05 1.42910E-05 
-4.71400E-06 4.92000E-06 2.35783E-05 -1.68500E-05 1.75434E-05 1.97392E-05 -1.58520E-05 3.34300E-06 1.84706E-05 
-1.24450E-05 1.81034E-05 1.43298E-05 -1.21740E-05 4.18100E-06 1.35926E-05 -1.92700E-05 1.17133E-05 2.21280E-05 
-1.95100E-05 8.88840E-06 2.05147E-05 -1.14100E-05 1.95453E-05 1.67199E-05 -3.19500E-06 1.39077E-05 1.64157E-05 
-1.69490E-05 1.68254E-05 1.67490E-05 -1.90230E-05 1.44379E-05 1.89790E-05 -1.09300E-05 9.88660E-06 1.12512E-05 
-1.01770E-05 2.35200E-06 1.51230E-05 -6.14000E-06 2.33200E-06 2.04191E-05 -1.81820E-05 7.67080E-06 2.33518E-05 
-1.46780E-05 1.86350E-05 1.65480E-05 -7.79500E-06 1.92200E-05 1.78781E-05 -1.75880E-05 1.46590E-05 1.49641E-05 
-1.00050E-05 1.42900E-06 2.10733E-05 -4.27500E-06 1.69742E-05 1.96542E-05 -7.62400E-06 2.88000E-06 1.48635E-05 
-4.35300E-06 1.09933E-05 1.39506E-05 -1.56060E-05 1.45039E-05 1.30339E-05 -1.50270E-05 5.39500E-06 1.40634E-05 
-1.25420E-05 3.33200E-06 2.47913E-05 -5.44700E-06 3.04900E-06 1.71798E-05 -1.70200E-05 1.17813E-05 1.33073E-05 
-4.68000E-06 6.36390E-06 1.42372E-05 -1.71750E-05 4.88900E-06 1.73351E-05 -1.14380E-05 1.25486E-05 2.82700E-05 
-9.17100E-06 5.21000E-06 1.23366E-05 -9.07700E-06 1.71935E-05 1.32539E-05 -1.76510E-05 7.93060E-06 1.49093E-05 
-1.29240E-05 1.58770E-05 1.24262E-05 -9.75500E-06 1.32897E-05 1.11811E-05 -1.92170E-05 8.18480E-06 1.78815E-05 
-1.38320E-05 1.18546E-05 1.13905E-05 -1.54790E-05 8.96470E-06 1.26051E-05 -1.37160E-05 2.53400E-06 1.69965E-05 
-2.28600E-06 9.74170E-06 1.73842E-05 -5.98900E-06 1.40626E-05 1.25817E-05 -7.66800E-06 9.59670E-06 1.13565E-05 
1.53675E-05 7.46220E-06 -2.57800E-06 1.52497E-05 7.08310E-06 1.27600E-06 1.07698E-05 6.78850E-06 -9.18700E-06 
1.38490E-05 3.44100E-06 -8.84100E-06 8.37770E-06 4.30500E-06 7.27250E-06 1.03096E-05 7.35060E-06 5.57100E-06 
1.21000E-05 8.82380E-06 2.88300E-06 5.61500E-06 -1.29100E-06 -9.99400E-06 1.01837E-05 -3.06200E-06 -9.02400E-06 
1.24541E-05 3.65800E-06 6.46410E-06 1.69969E-05 3.10700E-06 8.42000E-07 1.64879E-05 6.61999E-07 2.20400E-06 
5.85300E-06 -2.06400E-06 5.35600E-06 1.63928E-05 1.33900E-06 -6.33400E-06 1.50069E-05 -2.75300E-06 1.34600E-06 
8.97600E-06 4.71000E-07 -1.07080E-05 1.20077E-05 -5.07700E-06 -5.40400E-06 1.17256E-05 -5.17400E-06 -1.15900E-06 
1.34920E-05 -8.12000E-07 5.35300E-06 7.60980E-06 1.17581E-05 -1.87200E-06 3.35000E-07 4.11000E-06 -5.69100E-06 
6.68980E-06 -5.48000E-06 -7.00100E-06 8.48480E-06 -6.03700E-06 -4.26000E-06 1.14290E-05 -4.81000E-06 2.54800E-06 
8.05010E-06 -5.65500E-06 -8.25999E-07 3.05100E-06 7.35470E-06 -7.73700E-06 1.23600E-06 6.64470E-06 1.32000E-06 
1.39300E-06 -3.55300E-06 -3.54000E-06 2.81300E-06 -6.94999E-07 -8.35500E-06 3.17800E-06 -4.05200E-06 -6.59000E-06 
-6.89997E-08 4.57500E-06 -1.61700E-06 1.32981E-05 6.42390E-06 4.63800E-06 5.21500E-06 -5.21300E-06 -4.19400E-06 
1.26200E-06 -3.05400E-06 9.20000E-07 1.00200E-06 -1.86001E-07 -6.41600E-06 1.44352E-05 -2.40900E-06 -6.66400E-06 
1.23680E-05 -2.97300E-06 4.27800E-06 1.54420E-05 3.30700E-06 4.11100E-06 -4.14000E-07 2.98000E-07 -2.26600E-06 
2.88400E-06 3.35700E-06 -9.39000E-06 3.93700E-06 -5.05000E-06 -7.18001E-07 1.72404E-05 8.89996E-08 -1.57500E-06 
4.79300E-06 5.86400E-06 -9.59700E-06 9.43150E-06 -2.53500E-06 5.81700E-06 1.71432E-05 4.44500E-06 -2.52000E-06 
3.38200E-06 4.25100E-06 5.52700E-06 1.08546E-05 2.88000E-06 -1.03440E-05 1.61900E-06 8.13590E-06 -3.46400E-06 
6.96390E-06 7.57760E-06 5.58100E-06 1.18128E-05 9.96370E-06 -9.84001E-07 1.50356E-05 5.60700E-06 -6.77300E-06 
6.60030E-06 1.26000E-07 6.79060E-06 1.03334E-05 8.12000E-07 7.06990E-06 8.44720E-06 1.03268E-05 2.75900E-06 
4.33700E-06 9.01750E-06 3.36100E-06 3.03100E-06 -1.14300E-06 4.48900E-06 6.03690E-06 -4.50500E-06 3.22000E-06 
1.30085E-05 8.70890E-06 -5.57700E-06 6.70770E-06 8.58590E-06 -8.95300E-06 9.57650E-06 1.06679E-05 -5.87300E-06 
5.59100E-06 1.08852E-05 -5.63700E-06 6.95810E-06 3.92500E-06 -1.07790E-05 3.60300E-06 1.04336E-05 -6.28999E-07 
1.31235E-05 2.92001E-07 -9.40700E-06 2.79000E-07 1.78200E-06 1.88600E-06 6.03810E-06 1.04996E-05 1.43700E-06 
1.54470E-05 -2.53400E-06 -3.50300E-06 1.44809E-05 2.36711E-05 -7.57800E-06 1.50713E-05 2.46486E-05 -1.10070E-05 
7.79960E-06 3.34120E-05 -3.69500E-06 1.02786E-05 1.88694E-05 -8.37700E-06 1.35644E-05 3.15210E-05 -1.04210E-05 
1.15970E-05 2.90590E-05 -3.12200E-06 1.32794E-05 3.11150E-05 -6.32900E-06 1.51612E-05 2.77460E-05 -8.81100E-06 
1.39683E-05 2.76740E-05 -5.48900E-06 1.48285E-05 2.77790E-05 -1.20760E-05 1.38877E-05 2.48352E-05 -1.46010E-05 
1.06087E-05 3.22570E-05 -4.23400E-06 1.28574E-05 2.95080E-05 -1.48610E-05 1.05072E-05 2.61590E-05 -1.76940E-05 
1.20859E-05 2.55584E-05 -3.51600E-06 1.02304E-05 3.43870E-05 -7.60600E-06 8.60220E-06 3.03080E-05 -2.02300E-06 
5.49000E-07 3.37860E-05 -1.26610E-05 7.07350E-06 2.82200E-05 -1.86350E-05 7.04690E-06 3.55440E-05 -1.06150E-05 
5.05200E-06 3.11480E-05 -1.75210E-05 6.13010E-06 2.46094E-05 -1.88120E-05 -2.42600E-06 3.12700E-05 -1.04250E-05 
1.01380E-05 3.37970E-05 -1.29180E-05 7.41070E-06 1.92897E-05 -1.45710E-05 5.82900E-06 3.53300E-05 -6.44600E-06 
3.48900E-06 3.55320E-05 -1.00690E-05 5.21800E-06 3.42090E-05 -1.45490E-05 5.72900E-06 3.10890E-05 -1.84700E-06 
4.54200E-06 1.87072E-05 -1.41630E-05 3.53600E-06 2.99230E-05 -1.69500E-06 4.21800E-06 3.29010E-05 -3.03300E-06 
1.46000E-06 3.41880E-05 -6.03600E-06 9.52310E-06 2.69290E-05 -1.89500E-06 8.92240E-06 3.10350E-05 -1.68440E-05 
-2.70000E-07 3.37940E-05 -9.37100E-06 7.18001E-07 2.70160E-05 -1.73980E-05 1.18700E-06 3.13710E-05 -1.63620E-05 
2.13900E-06 2.20063E-05 -1.65030E-05 8.24180E-06 2.25571E-05 -1.75590E-05 -1.72200E-06 3.09170E-05 -1.34220E-05 
-1.94600E-06 3.10180E-05 -6.44300E-06 2.71200E-06 2.40939E-05 -1.79790E-05 -3.44600E-06 2.80990E-05 -1.14440E-05 
3.48200E-06 2.79740E-05 -1.85980E-05 -2.06700E-06 2.66910E-05 -4.78900E-06 -3.43200E-06 2.51831E-05 -8.51700E-06 
-4.06000E-07 2.34703E-05 -1.57430E-05 -2.04500E-06 2.19005E-05 -9.62200E-06 -2.80300E-06 2.42790E-05 -1.24420E-05 
-1.86300E-06 2.75190E-05 -1.51100E-05 -3.25000E-06 2.85470E-05 -7.88300E-06 2.02999E-07 2.23313E-05 -4.29700E-06 
4.15800E-06 1.80283E-05 -9.84000E-06 -1.01000E-06 2.15239E-05 -1.28190E-05 8.43000E-07 2.01016E-05 -1.05480E-05 
4.28000E-06 2.28012E-05 -3.46400E-06 -1.96400E-06 2.30102E-05 -6.48800E-06 1.02201E-05 1.90479E-05 -1.31180E-05 
1.09903E-05 2.17064E-05 -1.57930E-05 8.34580E-06 2.38287E-05 -2.50300E-06 6.66440E-06 1.77307E-05 -1.07990E-05 
1.57200E-06 2.04026E-05 -1.45620E-05 4.50000E-06 2.10672E-05 -1.69490E-05 1.12301E-05 2.21949E-05 -5.04500E-06 
1.27262E-05 2.11808E-05 -8.01200E-06 1.36637E-05 2.14649E-05 -1.16710E-05 5.60000E-06 2.69660E-05 -1.26300E-06 
2.61000E-06 1.94969E-05 -6.00800E-06 -1.86999E-07 2.07749E-05 -7.00800E-06 1.66800E-06 2.58915E-05 -2.21000E-06 
1.94999E-07 3.04360E-05 -3.36600E-06 7.39000E-06 1.97775E-05 -4.80900E-06 5.68400E-06 1.77994E-05 -6.65700E-06 
1.95365E-05 1.28798E-05 5.65000E-07 2.30348E-05 1.43394E-05 -3.02500E-06 1.81969E-05 2.08510E-05 -1.44400E-06 
1.90101E-05 2.23648E-05 -5.42400E-06 2.18611E-05 1.66449E-05 -1.18450E-05 1.80670E-05 1.75397E-05 1.02500E-06 
1.51091E-05 1.43986E-05 1.98200E-06 1.52727E-05 1.05495E-05 7.42000E-07 2.25496E-05 1.04586E-05 -5.53600E-06 
1.52601E-05 7.35180E-06 -2.55800E-06 2.22519E-05 1.94096E-05 -8.35800E-06 1.90621E-05 1.98108E-05 -1.23930E-05 
2.12997E-05 1.33209E-05 -1.29670E-05 1.90982E-05 1.63708E-05 -1.44370E-05 1.36445E-05 6.86540E-06 -1.18520E-05 
7.17050E-06 1.50771E-05 -1.25940E-05 1.29022E-05 1.70553E-05 1.52300E-06 8.38970E-06 1.66362E-05 -9.95000E-07 
8.07020E-06 2.06940E-05 -7.57300E-06 1.04205E-05 2.18333E-05 -1.00810E-05 1.16698E-05 9.72140E-06 -1.05800E-06 
1.88220E-05 1.03906E-05 -1.35730E-05 1.94234E-05 8.68900E-06 -2.28500E-06 1.15494E-05 1.41908E-05 -1.52960E-05 
2.16922E-05 9.85480E-06 -1.00870E-05 1.48531E-05 2.26617E-05 -3.07500E-06 1.49410E-05 2.00150E-05 1.39000E-07 
6.55540E-06 1.12696E-05 -1.02780E-05 5.52600E-06 1.50187E-05 -5.06300E-06 1.47758E-05 1.04520E-05 -1.48880E-05 
1.77716E-05 7.80320E-06 -1.19040E-05 1.94621E-05 7.01050E-06 -7.40700E-06 5.45500E-06 1.46772E-05 -8.60600E-06 
2.36111E-05 1.43809E-05 -8.49400E-06 2.16662E-05 1.89501E-05 -2.76100E-06 8.35460E-06 1.13331E-05 -1.31190E-05 
1.71048E-05 6.66060E-06 -4.57000E-06 1.07446E-05 6.69160E-06 -9.05700E-06 1.66936E-05 1.35476E-05 -1.55570E-05 
1.14471E-05 9.82370E-06 -1.40240E-05 8.03090E-06 8.30190E-06 -4.91400E-06 9.65400E-06 8.37910E-06 -1.17130E-05 
1.38531E-05 2.15353E-05 -1.17720E-05 1.63388E-05 6.33290E-06 -9.62500E-06 1.47717E-05 1.77013E-05 -1.48210E-05 
2.13546E-05 1.55083E-05 -9.21000E-07 1.02963E-05 1.88996E-05 -1.32040E-05 1.84136E-05 2.21134E-05 -9.69900E-06 
1.50947E-05 5.68400E-06 -6.90500E-06 2.33434E-05 1.65522E-05 -5.54400E-06 2.12530E-05 1.11434E-05 -2.09300E-06 
1.10435E-05 1.31633E-05 9.02000E-07 1.14405E-05 2.06021E-05 -1.26100E-06 5.75900E-06 1.75969E-05 -6.55900E-06 
6.66760E-06 1.77238E-05 -1.06540E-05 7.47430E-06 1.96233E-05 -4.75400E-06 1.10721E-05 2.24193E-05 -5.15700E-06 
1.44871E-05 2.35209E-05 -7.73000E-06 6.88860E-06 8.86090E-06 -8.93700E-06 5.70400E-06 1.08943E-05 -5.91900E-06 
7.47230E-06 1.17290E-05 -1.93000E-06 1.18568E-05 6.83650E-06 -4.62000E-06 7.21400E-06 1.47110E-05 -8.15300E-06 
1.00700E-06 2.05572E-05 -1.03720E-05 4.74800E-06 1.48080E-05 -1.69640E-05 -9.51400E-06 9.03730E-06 -1.01770E-05 
4.27300E-06 6.60220E-06 -6.34800E-06 2.83200E-06 1.63446E-05 -3.64900E-06 -8.33800E-06 1.14376E-05 -5.54100E-06 
-1.12200E-06 2.13682E-05 -1.28480E-05 -1.03700E-06 1.72617E-05 -1.85660E-05 6.12470E-06 1.09195E-05 -1.44910E-05 
-3.40000E-07 8.40280E-06 -1.87290E-05 -8.68500E-06 1.54597E-05 -1.45900E-05 3.52100E-06 7.02880E-06 -1.59810E-05 
-4.21200E-06 1.84459E-05 -1.70760E-05 6.97000E-07 1.36525E-05 -1.95430E-05 -1.86001E-07 5.16300E-06 -1.62180E-05 
5.69500E-06 1.08431E-05 -5.66200E-06 -9.99000E-07 2.61800E-06 -9.50600E-06 5.00700E-06 5.82700E-06 -9.59800E-06 
-4.79100E-06 2.11454E-05 -1.18210E-05 -3.94800E-06 2.04817E-05 -1.44470E-05 -1.03800E-06 1.80117E-05 -3.61400E-06 
2.98300E-06 3.55800E-06 -9.43800E-06 -4.72800E-06 6.32140E-06 -1.68570E-05 -2.50900E-06 3.52500E-06 -1.37190E-05 
-3.91000E-06 1.48291E-05 -1.91680E-05 -9.96300E-06 1.30515E-05 -8.53400E-06 4.41300E-06 1.95496E-05 -1.07130E-05 
-5.97700E-06 2.03781E-05 -8.47500E-06 -7.02600E-06 1.87916E-05 -1.40600E-05 -7.37600E-06 1.31179E-05 -1.72220E-05 
-7.48800E-06 9.62070E-06 -1.65060E-05 -5.94800E-06 4.86300E-06 -1.30570E-05 -6.88900E-06 1.83671E-05 -6.09400E-06 
-4.25600E-06 3.41200E-06 -1.06330E-05 2.08200E-06 1.79220E-05 -1.74270E-05 1.87800E-06 3.80200E-06 -1.34180E-05 
-8.62000E-06 1.74008E-05 -8.11300E-06 3.45500E-06 1.04774E-05 -1.77110E-05 -3.92200E-06 2.02813E-05 -6.16900E-06 
-8.38400E-06 7.39500E-06 -1.33450E-05 -7.80000E-08 1.39783E-05 -2.17500E-06 -2.16100E-06 2.16585E-05 -9.56900E-06 
5.51500E-06 6.63260E-06 -1.20000E-05 -9.41700E-06 1.64179E-05 -1.15750E-05 -8.54700E-06 9.14790E-06 -6.67400E-06 
-4.55000E-07 2.05885E-05 -6.98800E-06 -9.35001E-07 2.00461E-05 -1.60490E-05 -5.65600E-06 1.76335E-05 -4.02400E-06 
-9.81600E-06 1.19035E-05 -1.33200E-05 -7.43700E-06 1.94311E-05 -1.08730E-05 -4.71000E-07 1.04959E-05 -2.05700E-06 
-4.19200E-06 1.08580E-05 -1.92240E-05 -6.80800E-06 1.62180E-05 -1.67180E-05 3.14000E-06 1.25037E-05 -3.07600E-06 
-7.29200E-06 5.73800E-06 -9.17200E-06 -3.79300E-06 4.38600E-06 -6.57300E-06 5.58200E-06 1.49207E-05 -5.08000E-06 
1.75700E-06 8.20290E-06 -3.39200E-06 6.59350E-06 1.76065E-05 -1.06580E-05 7.13560E-06 1.51113E-05 -1.26030E-05 
-6.01900E-06 7.48820E-06 -5.26800E-06 -3.04000E-06 1.11291E-05 -2.08600E-06 -2.47800E-06 7.12400E-06 -3.30300E-06 
6.47720E-06 8.60040E-06 -8.97200E-06 7.12180E-06 1.11618E-05 -1.02590E-05 3.94000E-07 4.23700E-06 -5.71600E-06 
-6.10300E-06 1.05124E-05 -3.68000E-06 5.56700E-06 1.76245E-05 -6.57800E-06 1.71800E-06 2.02985E-05 -1.44030E-05 
2.46000E-06 1.94351E-05 -6.07000E-06 4.58300E-06 1.85991E-05 -1.42880E-05 -3.92200E-06 1.42597E-05 -2.64300E-06 
-7.91600E-06 1.45893E-05 -5.09100E-06 1.39430E-05 7.86040E-06 -1.70870E-05 1.74739E-05 1.72368E-05 -1.74120E-05 
1.06810E-05 6.89940E-06 -1.73100E-05 4.63400E-06 1.85393E-05 -1.43830E-05 1.65042E-05 2.06479E-05 -1.97390E-05 
1.86214E-05 1.73663E-05 -2.09920E-05 1.77685E-05 1.01779E-05 -2.06430E-05 7.84890E-06 2.34139E-05 -2.42990E-05 
9.42000E-07 1.37373E-05 -1.96010E-05 1.85425E-05 1.17563E-05 -2.39090E-05 1.06131E-05 2.32686E-05 -2.53940E-05 
1.48015E-05 1.06369E-05 -1.48190E-05 1.55680E-05 7.85080E-06 -2.01020E-05 1.27759E-05 2.30444E-05 -1.92890E-05 
1.73123E-05 1.98599E-05 -2.36510E-05 1.88467E-05 1.35620E-05 -1.98710E-05 1.70841E-05 1.72068E-05 -2.73690E-05 
8.25450E-06 2.27196E-05 -1.75840E-05 1.75872E-05 1.35446E-05 -2.72070E-05 1.47995E-05 1.51016E-05 -2.97800E-05 
1.51736E-05 2.06929E-05 -2.66860E-05 7.34600E-06 1.96081E-05 -1.43770E-05 2.01700E-06 1.79413E-05 -1.74410E-05 
1.61976E-05 1.01833E-05 -2.69620E-05 8.21460E-06 2.19261E-05 -2.77150E-05 1.50601E-05 1.22491E-05 -2.91020E-05 
1.22360E-05 1.41754E-05 -1.26900E-05 6.03970E-06 2.30512E-05 -2.08580E-05 1.08269E-05 2.15583E-05 -1.58480E-05 
1.21604E-05 2.17891E-05 -2.76400E-05 7.52580E-06 1.20398E-05 -2.95880E-05 5.07100E-06 1.04711E-05 -2.72120E-05 
1.32605E-05 6.52060E-06 -2.25550E-05 4.72800E-06 8.26500E-06 -2.37090E-05 5.53800E-06 1.33571E-05 -2.89600E-05 
3.12600E-06 1.43915E-05 -1.53060E-05 1.49319E-05 2.22764E-05 -2.17120E-05 1.03141E-05 6.44160E-06 -2.43410E-05 
2.18800E-06 1.15087E-05 -2.38530E-05 5.24300E-06 2.22672E-05 -2.45580E-05 1.04790E-05 1.95716E-05 -2.98030E-05 
2.85200E-06 2.07494E-05 -2.08280E-05 1.25397E-05 9.84510E-06 -2.90100E-05 1.89153E-05 1.54818E-05 -2.41130E-05 
5.96700E-06 8.52120E-06 -1.69080E-05 1.32800E-06 1.47035E-05 -2.37720E-05 7.58620E-06 1.83967E-05 -2.99670E-05 
1.37782E-05 1.87431E-05 -2.94830E-05 1.11900E-06 1.76110E-05 -2.19310E-05 9.93620E-06 1.24361E-05 -3.03650E-05 
1.35127E-05 7.62680E-06 -2.59310E-05 4.82800E-06 1.98266E-05 -2.75370E-05 1.02574E-05 5.98900E-06 -2.10710E-05 
2.40900E-06 1.74504E-05 -2.58880E-05 7.74650E-06 1.47092E-05 -3.04100E-05 2.95700E-06 1.38726E-05 -2.67730E-05 
4.70000E-06 1.62880E-05 -2.87710E-05 1.63154E-05 8.51040E-06 -2.35460E-05 1.03145E-05 7.78230E-06 -2.70840E-05 
4.56600E-06 2.08763E-05 -1.69290E-05 1.25704E-05 1.31346E-05 -3.03600E-05 1.10567E-05 1.61513E-05 -3.09020E-05 
2.83600E-06 9.90640E-06 -2.07260E-05 9.87810E-06 2.38901E-05 -2.18540E-05 2.76800E-06 1.98308E-05 -2.44220E-05 
1.36633E-05 2.30019E-05 -2.38760E-05 7.83070E-06 6.69020E-06 -1.87250E-05 8.53890E-06 1.13770E-05 -1.31730E-05 
6.07560E-06 1.08910E-05 -1.44580E-05 3.37700E-06 1.03644E-05 -1.75820E-05 1.15316E-05 9.70600E-06 -1.40290E-05 
1.47448E-05 1.76650E-05 -1.47240E-05 1.28957E-05 6.52900E-06 -1.98030E-05 1.04141E-05 1.88821E-05 -1.31930E-05 
7.20370E-06 1.50732E-05 -1.26540E-05 8.23450E-06 8.53280E-06 -1.53650E-05 1.70857E-05 1.04008E-05 -1.78160E-05 
1.41396E-05 2.05947E-05 -1.61500E-05 1.66802E-05 1.36646E-05 -1.55680E-05 7.70570E-06 7.67190E-06 -2.60540E-05 
5.01100E-06 7.74750E-06 -2.00210E-05 7.60740E-06 6.51270E-06 -2.25380E-05 8.64620E-06 9.71320E-06 -2.86850E-05 
1.14991E-05 2.06033E-05 -1.35900E-06 1.36675E-05 1.96386E-05 3.09300E-06 1.32820E-05 1.72710E-05 4.40800E-06 
1.09226E-05 2.41955E-05 2.10999E-07 1.29186E-05 2.24639E-05 2.50000E-06 1.14741E-05 2.07507E-05 9.95470E-06 
7.54030E-06 1.91388E-05 1.26015E-05 1.08165E-05 1.59781E-05 9.78940E-06 1.30980E-05 2.19840E-05 6.20350E-06 
8.57800E-06 1.18363E-05 8.06710E-06 5.65000E-06 1.01938E-05 6.17610E-06 1.16734E-05 2.50546E-05 4.09500E-06 
8.16320E-06 2.35787E-05 1.14148E-05 -3.09300E-06 1.61253E-05 3.57900E-06 5.30700E-06 1.19515E-05 9.25510E-06 
1.79600E-06 1.02032E-05 3.06600E-06 8.81910E-06 2.72410E-05 5.73800E-06 7.97440E-06 2.62320E-05 9.04770E-06 
-6.59000E-07 2.47770E-05 -1.33300E-06 5.74900E-06 2.82110E-05 3.05300E-06 4.28100E-06 2.30168E-05 -3.72100E-06 
9.01010E-06 2.67110E-05 1.02100E-06 -3.53100E-06 2.01985E-05 1.12100E-06 5.01500E-06 2.55501E-05 1.05871E-05 
1.90400E-06 1.38679E-05 1.02546E-05 3.36400E-06 1.05144E-05 -5.50999E-07 6.39550E-06 1.46560E-05 1.15851E-05 
2.09500E-06 1.07907E-05 6.79940E-06 1.24800E-06 2.50622E-05 9.54640E-06 2.14300E-06 2.74380E-05 5.59700E-06 
5.67600E-06 2.68270E-05 -1.22000E-06 -1.25800E-06 2.48444E-05 5.51300E-06 1.31211E-05 1.79928E-05 6.91530E-06 
-4.96000E-07 1.70755E-05 1.02395E-05 1.08315E-05 2.47996E-05 8.23040E-06 -8.78999E-07 1.34539E-05 7.26550E-06 
-2.45200E-06 2.38897E-05 1.89100E-06 2.77500E-06 1.78176E-05 1.26496E-05 4.48001E-07 2.10132E-05 1.12783E-05 
1.73000E-07 2.21569E-05 -4.13500E-06 4.28000E-06 9.32980E-06 3.41600E-06 -3.14400E-06 2.01277E-05 5.44600E-06 
-2.59000E-06 1.65406E-05 -6.81999E-07 1.19907E-05 1.37819E-05 5.07800E-06 2.31500E-06 1.55246E-05 -5.24100E-06 
6.05010E-06 1.01038E-05 1.29600E-06 -2.39900E-06 2.22641E-05 -1.12300E-06 -2.38300E-06 1.98730E-05 -2.02700E-06 
-1.63700E-06 2.09678E-05 8.74740E-06 1.24800E-06 2.72140E-05 1.30200E-06 4.96400E-06 2.74630E-05 7.70150E-06 
3.44200E-06 1.26584E-05 -3.33600E-06 3.66000E-06 2.22839E-05 1.24477E-05 -9.71000E-07 1.80422E-05 -3.72200E-06 
1.00351E-05 1.58237E-05 -2.63400E-06 -1.90400E-06 1.59351E-05 7.51840E-06 1.10582E-05 1.31420E-05 8.08000E-07 
7.49760E-06 1.96888E-05 -4.86600E-06 1.28935E-05 1.69122E-05 1.35100E-06 8.46760E-06 2.38627E-05 -2.52600E-06 
-1.00900E-06 1.24033E-05 5.22300E-06 5.41300E-06 1.74532E-05 -6.08400E-06 5.64300E-06 1.50635E-05 -5.16600E-06 
2.51700E-06 1.94559E-05 -5.86400E-06 1.57500E-06 2.55844E-05 -2.04900E-06 8.36240E-06 1.04227E-05 2.90300E-06 
-1.05400E-06 1.27535E-05 1.10900E-06 7.54600E-06 1.18365E-05 -1.89400E-06 -2.19999E-07 1.42557E-05 -2.35800E-06 
1.86253E-05 -2.35090E-05 1.06900E-06 1.74878E-05 -2.80760E-05 1.82300E-06 1.09729E-05 -3.24280E-05 -3.63200E-06 
1.62314E-05 -2.76450E-05 -5.63900E-06 1.38722E-05 -3.13150E-05 2.52000E-06 1.62706E-05 -2.18840E-05 5.44900E-06 
1.27389E-05 -2.41590E-05 8.10400E-06 1.47586E-05 -2.61490E-05 -7.70500E-06 1.24151E-05 -2.90540E-05 6.35930E-06 
1.35081E-05 -2.97880E-05 -6.64500E-06 5.01300E-06 -2.55540E-05 6.74310E-06 1.21888E-05 -2.01020E-05 7.19780E-06 
5.66000E-07 -2.51330E-05 -2.26000E-07 9.16890E-06 -2.63320E-05 7.98750E-06 7.35920E-06 -3.00870E-05 5.33800E-06 
1.14498E-05 -2.69290E-05 -9.21200E-06 8.57190E-06 -3.02530E-05 -7.52000E-06 6.38970E-06 -3.18620E-05 -3.16200E-06 
2.68100E-06 -2.80270E-05 3.00800E-06 5.16800E-06 -3.11140E-05 1.28200E-06 3.80900E-06 -2.88210E-05 -6.49300E-06 
4.56700E-06 -2.11140E-05 6.13430E-06 3.72700E-06 -1.89590E-05 -5.06600E-06 1.11600E-06 -2.56590E-05 -4.53200E-06 
7.35680E-06 -2.62450E-05 -9.42800E-06 9.61220E-06 -3.25440E-05 1.24800E-06 1.78600E-06 -2.31100E-05 3.47800E-06 
1.01408E-05 -2.37910E-05 -9.74900E-06 7.32870E-06 -2.22830E-05 -9.39800E-06 3.63500E-06 -2.43210E-05 -8.06400E-06 
1.38627E-05 -1.75670E-05 4.00200E-06 1.55085E-05 -3.07570E-05 -2.30500E-06 7.92490E-06 -1.65880E-05 -5.57300E-06 
7.33000E-07 -2.31990E-05 -2.40600E-06 1.74300E-06 -2.20550E-05 -5.22200E-06 4.13200E-06 -2.12080E-05 -7.46000E-06 
1.68833E-05 -2.29620E-05 -5.84400E-06 1.02122E-05 -1.81690E-05 -6.74600E-06 1.56441E-05 -1.89250E-05 -4.62700E-06 
2.14400E-06 -2.92830E-05 -1.95000E-06 1.81381E-05 -2.64800E-05 -2.71200E-06 8.05260E-06 -2.15680E-05 8.11320E-06 
1.69267E-05 -1.95570E-05 1.93800E-06 1.36544E-05 -1.96200E-05 -6.81200E-06 1.46510E-05 -1.66110E-05 -9.43000E-07 
5.96000E-06 -1.60670E-05 -2.22500E-06 7.21720E-06 -1.62970E-05 2.88800E-06 6.80880E-06 -1.91690E-05 -7.61000E-06 
1.08983E-05 -1.57680E-05 2.20400E-06 6.16360E-06 -1.85390E-05 5.49200E-06 9.43330E-06 -1.76060E-05 5.83700E-06 
1.07392E-05 -3.09050E-05 4.47200E-06 3.74800E-06 -1.74020E-05 -7.61000E-07 1.75929E-05 -2.01630E-05 -2.22000E-06 
1.22335E-05 -1.66800E-05 -4.89900E-06 1.58725E-05 -2.64050E-05 5.71600E-06 9.98180E-06 -1.52010E-05 -1.21600E-06 
1.33833E-05 -2.30000E-05 -8.68600E-06 1.03539E-05 -2.10540E-05 -8.95300E-06 3.42000E-06 -1.90270E-05 3.17100E-06 
1.74068E-05 -2.54290E-05 3.80600E-06 1.52484E-05 -2.86450E-05 4.62800E-06 1.25562E-05 -3.23130E-05 -5.32000E-07 
1.83056E-05 -2.34810E-05 -2.58400E-06 1.18300E-06 -2.05610E-05 -8.81000E-07 2.66040E-05 -9.93900E-06 -2.27100E-06 
2.65800E-05 -1.38590E-05 -8.60000E-08 2.60260E-05 -1.29620E-05 -4.79800E-06 1.91703E-05 -1.73730E-05 -7.98100E-06 
1.17510E-05 -1.02040E-05 5.08700E-06 2.46918E-05 -8.32300E-06 -6.23000E-06 2.08447E-05 -1.02650E-05 -9.53600E-06 
2.61140E-05 -9.23500E-06 2.44200E-06 2.38513E-05 -1.23350E-05 -7.76900E-06 2.14317E-05 -1.42230E-05 -8.78300E-06 
2.41588E-05 -1.17900E-05 5.68200E-06 2.53339E-05 -1.37810E-05 3.68800E-06 2.19307E-05 -1.85500E-05 -5.24200E-06 
1.87189E-05 -2.35000E-06 -2.40200E-06 2.15350E-05 -1.97620E-05 -1.99300E-06 2.08201E-05 -1.11950E-05 7.42110E-06 
2.20951E-05 -3.27600E-06 7.59992E-08 2.08331E-05 -6.10500E-06 -7.93800E-06 1.78395E-05 -6.82700E-06 -9.07400E-06 
2.29646E-05 -5.46100E-06 3.96200E-06 2.46535E-05 -1.73290E-05 -2.80200E-06 2.20920E-05 -1.56110E-05 5.94700E-06 
1.59409E-05 -1.71040E-05 -6.99700E-06 2.01613E-05 -1.87140E-05 3.73300E-06 1.87135E-05 -1.95120E-05 -4.93300E-06 
2.00105E-05 -1.98680E-05 8.84000E-07 1.50910E-05 -2.88500E-06 1.29400E-06 1.84024E-05 -3.68100E-06 3.93400E-06 
1.84376E-05 -1.40830E-05 7.32480E-06 1.56577E-05 -1.89590E-05 -4.76200E-06 1.60732E-05 -9.76600E-06 -9.72200E-06 
1.45361E-05 -4.78500E-06 4.37500E-06 1.49942E-05 -6.73700E-06 -8.48500E-06 1.59494E-05 -6.30000E-06 5.96400E-06 
2.31464E-05 -8.61300E-06 5.90000E-06 1.52358E-05 -1.51160E-05 6.63460E-06 1.22639E-05 -5.21800E-06 -5.47800E-06 
8.86540E-06 -1.13300E-05 -4.91000E-07 1.73537E-05 -4.02200E-06 -6.70600E-06 1.57218E-05 -1.07180E-05 7.19270E-06 
1.89531E-05 -2.72600E-06 1.21700E-06 1.31147E-05 -7.14500E-06 4.74500E-06 1.78378E-05 -1.74920E-05 5.58800E-06 
2.21016E-05 -4.14300E-06 -4.71100E-06 1.20464E-05 -1.36890E-05 5.50700E-06 1.95404E-05 -7.11800E-06 6.77980E-06 
1.37263E-05 -1.74410E-05 3.98500E-06 2.33737E-05 -1.61020E-05 -6.85700E-06 2.37911E-05 -1.79110E-05 1.75900E-06 
2.53366E-05 -6.31300E-06 -1.84700E-06 9.48770E-06 -1.33980E-05 1.08500E-06 1.19954E-05 -9.17800E-06 -7.64200E-06 
1.35674E-05 -1.31480E-05 -8.29100E-06 1.68239E-05 -1.95800E-05 1.96400E-06 2.46469E-05 -5.84200E-06 1.37500E-06 
1.30128E-05 -1.85950E-05 -5.85000E-07 1.81124E-05 -1.38040E-05 -9.15500E-06 1.22424E-05 -1.67680E-05 -4.95700E-06 
9.86980E-06 -7.88500E-06 1.90100E-06 1.75409E-05 -2.01370E-05 -2.02200E-06 1.17441E-05 -5.04700E-06 2.61600E-06 
9.89210E-06 -8.10300E-06 -3.26600E-06 1.01562E-05 -1.24310E-05 -5.23300E-06 9.69550E-06 -1.18290E-05 3.19600E-06 
9.89010E-06 -1.52390E-05 -1.29900E-06 1.08148E-05 -1.57890E-05 2.23100E-06 1.51491E-05 -3.04400E-06 -3.13500E-06 
1.15933E-05 -5.02200E-06 -1.15900E-06 8.41850E-06 -6.18900E-06 -4.44300E-06 8.19880E-06 -9.16200E-06 -8.11900E-06 
6.38990E-06 -5.58300E-06 -7.15600E-06 5.43000E-06 -4.54800E-06 -4.24800E-06 -5.77100E-06 -1.25840E-05 -5.85600E-06 
-1.41001E-07 -9.91600E-06 7.30380E-06 -1.82600E-06 -4.81500E-06 -5.03000E-07 1.16700E-06 -3.18400E-06 1.01900E-06 
1.34900E-06 -4.62200E-06 4.50500E-06 9.64950E-06 -1.18060E-05 3.20500E-06 -3.99999E-07 -4.99600E-06 -6.41800E-06 
-1.74000E-06 -5.32700E-06 3.15500E-06 -7.72001E-07 -7.23200E-06 5.96200E-06 -1.90400E-06 -5.87400E-06 -4.31200E-06 
-4.31000E-07 -1.58680E-05 -9.85000E-06 5.71999E-07 -9.68700E-06 -1.10000E-05 3.53100E-06 -7.67900E-06 -1.02550E-05 
-2.89000E-06 -8.97500E-06 5.18200E-06 7.06060E-06 -8.55700E-06 5.72100E-06 4.07999E-07 -1.85820E-05 -7.11600E-06 
-1.83900E-06 -9.18300E-06 -9.76700E-06 1.09515E-05 -1.14220E-05 -8.86999E-07 -1.29600E-06 -1.22020E-05 -1.08070E-05 
9.93670E-06 -1.52300E-05 -1.17600E-06 6.73190E-06 -1.32910E-05 5.80700E-06 -4.01900E-06 -7.61200E-06 -1.64100E-06 
-4.53000E-06 -8.51500E-06 -4.93700E-06 -4.07100E-06 -1.07530E-05 -8.31900E-06 -3.85700E-06 -1.39790E-05 -8.46100E-06 
-2.63300E-06 -1.68670E-05 4.53400E-06 3.60000E-07 -1.29760E-05 7.81670E-06 9.00040E-09 -1.68210E-05 6.06260E-06 
-9.60008E-08 -6.65800E-06 -9.13000E-06 7.23650E-06 -1.63570E-05 2.89000E-06 4.13800E-06 -3.44800E-06 -6.52000E-07 
-6.28000E-06 -1.00740E-05 -1.61600E-06 -5.50700E-06 -1.12770E-05 3.62400E-06 -1.72200E-06 -1.91540E-05 2.66100E-06 
9.96350E-06 -8.11700E-06 -3.25000E-06 7.50040E-06 -1.34750E-05 -9.29600E-06 -6.46700E-06 -1.49180E-05 -2.16600E-06 
-5.42000E-06 -1.58920E-05 2.29500E-06 -3.67900E-06 -1.89240E-05 -1.26600E-06 5.51900E-06 -9.52000E-06 -1.06210E-05 
-3.90600E-06 -1.70880E-05 -6.03300E-06 -2.78700E-06 -7.14100E-06 -7.11700E-06 -5.59999E-07 -1.96680E-05 -4.35700E-06 
6.35610E-06 -1.89170E-05 -1.19900E-06 1.01910E-05 -1.24310E-05 -5.22100E-06 2.72000E-06 -6.57600E-06 6.39160E-06 
3.22800E-06 -1.89440E-05 3.16600E-06 3.75100E-06 -1.92110E-05 -5.13300E-06 3.26700E-06 -1.07940E-05 7.64710E-06 
9.68120E-06 -7.73400E-06 1.92800E-06 -4.22400E-06 -7.66100E-06 1.92600E-06 3.38800E-06 -1.26640E-05 -1.16330E-05 
4.26600E-06 -1.68350E-05 -8.91100E-06 7.90060E-06 -1.66340E-05 -5.60600E-06 8.16650E-06 -5.48200E-06 -8.55000E-07 
5.87000E-06 -4.58700E-06 3.29800E-06 1.21200E-06 -2.03460E-05 -9.18000E-07 4.05800E-06 -1.52920E-05 6.47220E-06 
-2.88100E-06 -1.34480E-05 6.19880E-06 2.96100E-06 -4.20000E-06 -6.75800E-06 -6.52900E-06 -1.31200E-05 3.13001E-07 
1.33300E-06 -3.53000E-06 -3.42900E-06 1.45630E-05 -1.25420E-05 -6.20900E-06 1.94868E-05 -2.04600E-05 -1.89470E-05 
1.60781E-05 -9.77800E-06 -9.73700E-06 5.74200E-06 -1.22760E-05 -7.60900E-06 1.56598E-05 -8.08900E-06 -1.37170E-05 
1.81521E-05 -9.61100E-06 -1.43850E-05 2.03138E-05 -1.24400E-05 -1.35690E-05 1.32953E-05 -7.58800E-06 -1.13900E-05 
1.70738E-05 -1.06940E-05 -1.91670E-05 1.52123E-05 -8.27400E-06 -1.67090E-05 1.74753E-05 -2.41020E-05 -1.61750E-05 
1.69626E-05 -2.06360E-05 -7.93500E-06 8.03560E-06 -2.35190E-05 -1.64850E-05 1.02573E-05 -7.25100E-06 -1.18300E-05 
1.26471E-05 -8.88700E-06 -1.91880E-05 9.22740E-06 -7.86700E-06 -1.62390E-05 2.09707E-05 -1.64130E-05 -1.77560E-05 
1.02250E-05 -1.59510E-05 -2.24650E-05 1.61273E-05 -1.70660E-05 -6.82900E-06 8.71040E-06 -1.13000E-05 -2.03260E-05 
1.36131E-05 -1.28170E-05 -2.21070E-05 2.01213E-05 -2.19650E-05 -1.48790E-05 1.39427E-05 -1.69120E-05 -2.28640E-05 
1.66555E-05 -2.34960E-05 -1.03050E-05 1.81948E-05 -1.37820E-05 -9.00800E-06 7.02530E-06 -8.35300E-06 -1.23120E-05 
1.25508E-05 -7.18000E-06 -1.50280E-05 2.10617E-05 -1.74010E-05 -1.13530E-05 1.59467E-05 -1.95820E-05 -2.18700E-05 
5.66700E-06 -1.00730E-05 -1.58830E-05 1.81556E-05 -1.54730E-05 -2.10710E-05 1.83972E-05 -2.34560E-05 -1.28290E-05 
3.42900E-06 -1.29960E-05 -1.17130E-05 2.15883E-05 -1.89350E-05 -1.48370E-05 6.35240E-06 -1.57750E-05 -2.02770E-05 
1.22478E-05 -2.05290E-05 -2.20450E-05 1.51797E-05 -2.32060E-05 -1.97210E-05 8.36860E-06 -2.04520E-05 -2.04700E-05 
1.11109E-05 -2.34370E-05 -1.91990E-05 3.79400E-06 -1.44360E-05 -1.66460E-05 8.30000E-06 -9.21000E-06 -8.14000E-06 
1.58626E-05 -2.47580E-05 -1.30860E-05 2.15933E-05 -1.52960E-05 -1.42850E-05 2.02207E-05 -1.29490E-05 -1.72370E-05 
4.86400E-06 -1.94960E-05 -1.75450E-05 1.28931E-05 -2.52990E-05 -1.57780E-05 5.06100E-06 -2.15770E-05 -1.37500E-05 
1.02400E-05 -2.48940E-05 -1.29050E-05 1.31319E-05 -2.49030E-05 -1.12990E-05 7.28820E-06 -2.34430E-05 -1.20470E-05 
1.02028E-05 -2.38000E-05 -9.79200E-06 7.46370E-06 -2.21470E-05 -9.36000E-06 1.88443E-05 -1.15000E-05 -1.14170E-05 
5.43300E-06 -9.73900E-06 -1.09970E-05 1.19836E-05 -9.11100E-06 -7.69100E-06 1.36612E-05 -1.97220E-05 -6.67900E-06 
7.91910E-06 -1.64460E-05 -5.71900E-06 1.00809E-05 -1.85440E-05 -6.18900E-06 1.01074E-05 -1.24700E-05 -5.35400E-06 
1.22549E-05 -1.66230E-05 -5.08000E-06 4.35000E-06 -1.67080E-05 -8.88800E-06 2.04263E-05 -1.47680E-05 -1.10090E-05 
6.81680E-06 -1.92990E-05 -7.68000E-06 1.01553E-05 -2.14670E-05 -7.68900E-06 5.13400E-06 -2.06630E-05 -1.05300E-05 
1.34555E-05 -2.31320E-05 -8.67800E-06 1.99974E-05 -2.08880E-05 -1.09400E-05 3.10700E-06 -1.78850E-05 -1.32440E-05 
1.91027E-05 -1.74910E-05 -8.39800E-06 4.21400E-06 -1.14990E-05 -1.37540E-05 5.86300E-06 -1.29330E-05 -1.88840E-05 
1.81774E-05 -4.45300E-06 1.21100E-05 1.81771E-05 -8.37600E-06 1.34929E-05 1.80645E-05 -7.47500E-06 9.32460E-06 
1.70514E-05 -1.19530E-05 1.17083E-05 1.24865E-05 -1.23360E-05 1.85637E-05 1.52462E-05 -1.75900E-06 1.69400E-05 
1.61246E-05 -6.35400E-06 6.15310E-06 1.43088E-05 -4.30000E-06 1.92131E-05 1.37983E-05 -7.90000E-06 1.98426E-05 
1.10206E-05 -1.59070E-05 1.22743E-05 8.48960E-06 -1.27760E-05 1.85181E-05 5.40100E-06 -1.07810E-05 1.88147E-05 
9.37500E-06 -1.55490E-05 8.80180E-06 1.34971E-05 8.95000E-07 1.50565E-05 1.44062E-05 -4.56100E-06 4.54600E-06 
1.22083E-05 -1.07700E-06 1.86013E-05 4.10000E-06 -1.29700E-05 8.86450E-06 1.05013E-05 1.02400E-06 1.64599E-05 
1.62700E-06 -7.31700E-06 9.07690E-06 9.33010E-06 -9.45000E-06 2.05264E-05 5.31200E-06 -6.69000E-06 1.98863E-05 
5.72800E-06 -1.45730E-05 9.39610E-06 1.08151E-05 2.02500E-06 1.31761E-05 8.72710E-06 -5.63001E-07 1.86053E-05 
6.98730E-06 -2.54300E-06 1.94014E-05 1.61830E-05 -1.07190E-05 1.65411E-05 2.93400E-06 -1.17310E-05 1.53991E-05 
1.37200E-06 -6.74400E-06 1.15363E-05 1.57057E-05 -1.08470E-05 7.11870E-06 4.31200E-06 -3.04300E-06 1.81341E-05 
2.24600E-06 -5.97600E-06 1.68379E-05 3.99400E-06 1.40008E-08 1.04695E-05 5.86600E-06 -2.01900E-06 5.21700E-06 
2.78000E-06 -9.12800E-06 1.72562E-05 1.18527E-05 -1.36780E-05 5.57700E-06 2.45200E-06 -1.18020E-05 1.16705E-05 
1.70811E-05 -5.51400E-06 1.65352E-05 8.35810E-06 1.86600E-06 1.03231E-05 5.68400E-06 -6.36999E-07 1.72476E-05 
5.77000E-06 -1.40140E-05 1.58610E-05 1.37613E-05 -1.48480E-05 9.58810E-06 1.22967E-05 -1.07610E-05 3.83900E-06 
5.75200E-06 -9.41700E-06 3.42900E-06 1.37253E-05 1.30500E-06 1.02177E-05 7.22540E-06 -1.55680E-05 1.23092E-05 
9.76690E-06 -7.89100E-06 2.05800E-06 9.86280E-06 -1.50030E-05 1.58759E-05 1.68870E-05 -2.58700E-06 8.44750E-06 
3.57600E-06 -2.62400E-06 6.86360E-06 5.92200E-06 -4.65000E-06 3.34200E-06 4.06700E-06 -1.38690E-05 1.20312E-05 
1.40244E-05 -1.45720E-05 1.43276E-05 1.01762E-05 -4.60600E-06 2.06790E-05 1.65295E-05 -1.13900E-06 1.34061E-05 
6.64950E-06 2.10001E-07 6.84470E-06 1.34713E-05 -7.28400E-06 4.21600E-06 1.84100E-06 -9.36800E-06 1.02642E-05 
9.31070E-06 -1.67900E-06 4.21200E-06 1.57500E-06 -5.01000E-06 1.38533E-05 1.45300E-06 -8.73200E-06 1.39809E-05 
9.62460E-06 -1.17280E-05 3.34700E-06 1.13921E-05 -4.78700E-06 2.74500E-06 1.04066E-05 8.78000E-07 6.96280E-06 
1.34609E-05 -1.00000E-06 5.52000E-06 3.22100E-06 -1.08510E-05 7.59900E-06 1.27600E-06 -4.14300E-06 1.06027E-05 
6.73150E-06 1.46900E-06 1.47238E-05 2.65800E-06 -6.62300E-06 6.28700E-06 2.84500E-06 -1.70800E-06 1.50732E-05 
6.75460E-06 -1.32590E-05 5.76000E-06 
CELLS 17 9442
673 168 3 0 80 27 3 0 60 80 3 0 76 60 3 0 13 76 3 0 27 13 3 1 79 26 3 1 27 79 3 1 3 27 3 1 77 3 3 1 78 77 3 1 26 78 3 2 9 75 3 2 75 68 3 2 68 36 3 2 36 34 3 2 34 22 3 2 22 9 3 3 13 27 3 3 32 13 3 3 75 32 3 3 77 75 3 4 79 80 3 4 80 7 3 4 7 84 3 4 84 49 3 4 49 69 3 4 69 74 3 4 74 79 3 5 7 60 3 5 54 7 3 5 12 54 3 5 6 12 3 5 60 6 3 6 76 82 3 6 60 76 3 6 83 12 3 6 82 83 3 7 80 60 3 7 54 84 3 8 13 32 3 8 81 13 3 8 15 81 3 8 67 15 3 8 9 67 3 8 32 9 3 9 32 75 3 9 22 67 3 10 35 34 3 10 34 52 3 10 52 55 3 10 55 53 3 10 53 35 3 11 66 51 3 11 51 85 3 11 85 24 3 11 24 71 3 11 71 66 3 12 29 54 3 12 83 29 3 13 81 76 3 14 81 15 3 14 82 81 3 14 20 82 3 14 70 20 3 14 15 70 3 15 67 70 3 16 31 20 3 16 20 70 3 16 33 42 3 16 42 31 3 16 70 21 3 16 21 33 3 17 74 69 3 17 69 23 3 17 85 74 3 17 24 85 3 17 23 24 3 18 61 57 3 18 19 61 3 18 46 19 3 18 62 46 3 18 64 62 3 18 57 64 3 19 46 43 3 19 43 37 3 19 37 56 3 19 56 61 3 20 83 82 3 20 31 83 3 21 70 67 3 21 67 35 3 21 53 33 3 21 35 53 3 22 35 67 3 22 34 35 3 23 69 45 3 23 72 24 3 23 50 72 3 23 45 50 3 24 72 71 3 25 73 51 3 25 36 73 3 25 52 36 3 25 47 52 3 25 66 47 3 25 51 66 3 26 85 78 3 26 79 74 3 26 74 85 3 27 80 79 3 28 84 54 3 28 45 84 3 28 38 45 3 28 58 38 3 28 54 58 3 29 58 54 3 29 39 58 3 29 30 39 3 29 83 30 3 30 83 31 3 30 31 42 3 30 42 41 3 30 41 40 3 30 40 39 3 33 44 42 3 33 53 44 3 34 36 52 3 36 68 73 3 37 50 38 3 37 43 50 3 37 48 56 3 37 38 48 3 38 50 45 3 38 58 48 3 39 48 58 3 39 40 48 3 40 56 48 3 40 59 56 3 40 41 59 3 41 63 59 3 41 44 63 3 41 42 44 3 43 72 50 3 43 46 72 3 44 65 63 3 44 53 65 3 45 49 84 3 45 69 49 3 46 62 71 3 46 71 72 3 47 64 52 3 47 62 64 3 47 66 62 3 51 73 78 3 51 78 85 3 52 64 55 3 53 55 65 3 55 64 57 3 55 57 65 3 56 59 61 3 57 63 65 3 57 61 63 3 59 63 61 3 62 66 71 3 68 77 73 3 68 75 77 3 73 77 78 3 76 81 82 
545 136 3 86 132 101 3 86 101 103 3 86 103 120 3 86 113 132 3 86 130 113 3 86 120 130 3 87 142 134 3 87 88 142 3 87 89 88 3 87 93 89 3 87 92 93 3 87 134 92 3 88 89 136 3 88 136 111 3 88 100 142 3 88 111 100 3 89 93 94 3 89 94 135 3 89 135 136 3 90 134 96 3 90 91 134 3 90 102 91 3 90 132 102 3 90 96 132 3 91 92 134 3 91 98 92 3 91 133 98 3 91 102 133 3 92 98 93 3 93 98 148 3 93 148 94 3 94 131 135 3 94 126 131 3 94 148 126 3 95 99 111 3 95 111 149 3 95 149 107 3 95 107 140 3 95 140 99 3 96 134 142 3 96 101 132 3 96 146 101 3 96 142 146 3 97 142 100 3 97 146 142 3 97 155 146 3 97 125 103 3 97 99 125 3 97 100 99 3 97 103 155 3 98 133 110 3 98 110 148 3 99 100 111 3 99 140 125 3 101 146 155 3 101 155 103 3 102 128 108 3 102 132 128 3 102 108 133 3 103 125 109 3 103 109 120 3 104 140 105 3 104 125 140 3 104 109 125 3 104 119 109 3 104 105 119 3 105 140 107 3 105 153 119 3 105 107 153 3 106 131 126 3 106 129 131 3 106 152 144 3 106 126 152 3 106 144 129 3 107 149 150 3 107 150 153 3 108 128 117 3 108 117 147 3 108 147 133 3 109 119 118 3 109 118 120 3 110 147 123 3 110 133 147 3 110 123 148 3 111 136 149 3 112 119 153 3 112 122 118 3 112 118 119 3 112 151 122 3 112 153 151 3 113 128 132 3 113 130 116 3 113 116 128 3 114 147 117 3 114 117 127 3 114 123 147 3 114 145 115 3 114 115 123 3 114 127 145 3 115 152 123 3 115 144 152 3 115 145 144 3 116 117 128 3 116 130 121 3 116 121 124 3 116 124 117 3 117 124 127 3 118 139 120 3 118 122 139 3 120 139 130 3 121 138 124 3 121 139 138 3 121 130 139 3 122 151 143 3 122 143 138 3 122 138 139 3 123 152 148 3 124 141 127 3 124 138 141 3 126 148 152 3 127 141 145 3 129 149 131 3 129 150 149 3 129 144 154 3 129 154 150 3 131 149 136 3 131 136 135 3 137 143 151 3 137 144 145 3 137 154 144 3 137 141 143 3 137 145 141 3 137 151 154 3 138 143 141 3 150 154 153 3 151 153 154 
497 124 3 156 200 219 3 156 158 200 3 156 175 158 3 156 210 175 3 156 211 210 3 156 213 211 3 156 219 213 3 157 219 176 3 157 176 161 3 157 161 163 3 157 163 164 3 157 164 174 3 157 174 219 3 158 159 200 3 158 187 159 3 158 175 187 3 159 187 193 3 159 193 160 3 159 176 200 3 159 160 176 3 160 193 214 3 160 214 191 3 160 191 161 3 160 161 176 3 161 162 163 3 161 191 162 3 162 206 163 3 162 172 206 3 162 191 166 3 162 166 172 3 163 167 164 3 163 206 167 3 164 165 174 3 164 170 165 3 164 167 170 3 165 213 174 3 165 170 197 3 165 197 198 3 165 198 213 3 166 207 172 3 166 203 207 3 166 173 203 3 166 168 173 3 166 191 214 3 166 214 168 3 167 206 209 3 167 182 170 3 167 209 182 3 168 217 173 3 168 214 217 3 169 206 207 3 169 209 206 3 169 194 182 3 169 196 194 3 169 207 196 3 169 182 209 3 170 192 197 3 170 182 192 3 171 190 180 3 171 180 195 3 171 216 190 3 171 202 216 3 171 195 202 3 172 207 206 3 173 217 189 3 173 189 177 3 173 177 185 3 173 185 203 3 174 213 219 3 175 215 187 3 175 204 215 3 175 210 204 3 176 219 200 3 177 189 178 3 177 178 181 3 177 181 185 3 178 188 208 3 178 215 188 3 178 189 215 3 178 208 181 3 179 210 211 3 179 211 218 3 179 186 210 3 179 199 186 3 179 218 190 3 179 190 199 3 180 197 192 3 180 205 195 3 180 192 205 3 180 190 218 3 180 218 197 3 181 201 185 3 181 184 201 3 181 208 184 3 182 194 205 3 182 205 192 3 183 196 201 3 183 194 196 3 183 205 194 3 183 195 205 3 183 201 202 3 183 202 195 3 184 202 201 3 184 216 202 3 184 208 216 3 185 196 203 3 185 201 196 3 186 204 210 3 186 199 216 3 186 208 188 3 186 188 204 3 186 216 208 3 187 212 193 3 187 215 212 3 188 215 204 3 189 212 215 3 189 217 212 3 190 216 199 3 193 212 217 3 193 217 214 3 196 207 203 3 197 218 198 3 198 218 211 3 198 211 213 
585 146 3 220 263 285 3 220 221 263 3 220 292 221 3 220 244 292 3 220 285 244 3 221 231 263 3 221 247 231 3 221 292 247 3 222 230 281 3 222 270 230 3 222 257 270 3 222 258 239 3 222 281 258 3 222 239 257 3 223 285 225 3 223 225 284 3 223 244 285 3 223 267 244 3 223 227 267 3 223 284 227 3 224 242 254 3 224 235 242 3 224 236 235 3 224 256 236 3 224 273 256 3 224 254 273 3 225 285 282 3 225 272 284 3 225 282 272 3 226 241 286 3 226 286 246 3 226 252 241 3 226 253 252 3 226 246 253 3 227 284 235 3 227 235 237 3 227 237 267 3 228 247 293 3 228 294 247 3 228 293 286 3 228 245 294 3 228 241 245 3 228 286 241 3 229 259 290 3 229 265 259 3 229 232 265 3 229 290 266 3 229 266 256 3 229 256 232 3 230 250 281 3 230 233 250 3 230 280 233 3 230 274 280 3 230 270 274 3 231 238 263 3 231 294 238 3 231 247 294 3 232 256 273 3 232 273 276 3 232 276 264 3 232 264 265 3 233 280 260 3 233 260 234 3 233 234 250 3 234 248 240 3 234 240 287 3 234 287 250 3 234 260 248 3 235 236 237 3 235 284 242 3 236 266 237 3 236 256 266 3 237 269 267 3 237 266 269 3 238 258 288 3 238 288 263 3 238 294 277 3 238 277 258 3 239 249 255 3 239 277 249 3 239 258 277 3 239 255 257 3 240 282 288 3 240 272 282 3 240 248 272 3 240 288 287 3 241 251 245 3 241 252 251 3 242 284 291 3 242 291 254 3 243 251 252 3 243 255 251 3 243 271 255 3 243 252 253 3 243 253 261 3 243 261 271 3 244 283 292 3 244 267 283 3 245 249 294 3 245 251 249 3 246 286 289 3 246 289 290 3 246 262 253 3 246 259 262 3 246 290 259 3 247 292 293 3 248 291 272 3 248 260 291 3 249 277 294 3 249 251 255 3 250 287 281 3 253 262 261 3 254 291 268 3 254 268 273 3 255 271 257 3 257 271 270 3 258 281 287 3 258 287 288 3 259 265 262 3 260 268 291 3 260 280 268 3 261 275 271 3 261 279 275 3 261 262 279 3 262 265 279 3 263 282 285 3 263 288 282 3 264 276 278 3 264 279 265 3 264 278 279 3 266 290 269 3 267 269 283 3 268 276 273 3 268 280 276 3 269 290 289 3 269 289 283 3 270 275 274 3 270 271 275 3 272 291 284 3 274 275 278 3 274 278 280 3 275 279 278 3 276 280 278 3 283 293 292 3 283 289 293 3 286 293 289 
569 142 3 295 365 345 3 295 301 334 3 295 334 356 3 295 345 301 3 295 356 365 3 296 309 326 3 296 326 325 3 296 325 329 3 296 329 339 3 296 342 309 3 296 339 342 3 297 330 308 3 297 308 314 3 297 328 330 3 297 336 328 3 297 320 336 3 297 314 320 3 298 307 315 3 298 315 318 3 298 329 307 3 298 339 329 3 298 340 339 3 298 337 340 3 298 318 337 3 299 301 345 3 299 317 301 3 299 333 317 3 299 367 333 3 299 345 367 3 300 334 359 3 300 356 334 3 300 357 356 3 300 306 357 3 300 305 306 3 300 359 305 3 301 313 334 3 301 317 313 3 302 316 310 3 302 310 333 3 302 333 363 3 302 363 304 3 302 324 316 3 302 304 324 3 303 348 351 3 303 315 348 3 303 318 315 3 303 323 318 3 303 316 323 3 303 310 316 3 303 351 310 3 304 331 324 3 304 363 360 3 304 360 354 3 304 354 331 3 305 362 306 3 305 350 362 3 305 359 350 3 306 311 357 3 306 362 311 3 307 362 350 3 307 325 362 3 307 329 325 3 307 350 315 3 308 360 367 3 308 367 364 3 308 330 360 3 308 364 314 3 309 321 326 3 309 349 321 3 309 322 349 3 309 342 322 3 310 317 333 3 310 351 317 3 311 362 326 3 311 326 321 3 311 321 327 3 311 327 357 3 312 358 327 3 312 327 321 3 312 319 358 3 312 349 319 3 312 321 349 3 313 359 334 3 313 348 359 3 313 351 348 3 313 317 351 3 314 364 366 3 314 366 320 3 315 350 348 3 316 324 323 3 318 323 332 3 318 332 337 3 319 366 358 3 319 320 366 3 319 361 320 3 319 349 361 3 320 361 336 3 322 342 347 3 322 361 349 3 322 347 355 3 322 355 361 3 323 324 332 3 324 331 332 3 325 326 362 3 327 353 357 3 327 358 353 3 328 352 335 3 328 335 330 3 328 336 352 3 330 354 360 3 330 335 354 3 331 338 332 3 331 344 338 3 331 335 344 3 331 354 335 3 332 338 337 3 333 367 363 3 335 352 344 3 336 355 352 3 336 361 355 3 337 341 340 3 337 338 341 3 338 344 341 3 339 343 342 3 339 340 343 3 340 341 343 3 341 346 343 3 341 344 346 3 342 343 347 3 343 346 347 3 344 352 346 3 345 364 367 3 345 365 364 3 346 352 355 3 346 355 347 3 348 350 359 3 353 365 356 3 353 356 357 3 353 366 365 3 353 358 366 3 360 363 367 3 364 365 366 
569 142 3 368 369 374 3 368 371 369 3 368 377 371 3 368 376 377 3 368 374 376 3 369 438 374 3 369 371 399 3 369 370 438 3 369 399 370 3 370 426 438 3 370 399 412 3 370 412 424 3 370 424 426 3 371 377 378 3 371 378 372 3 371 372 399 3 372 380 399 3 372 423 380 3 372 379 423 3 372 378 379 3 373 413 405 3 373 396 413 3 373 401 396 3 373 427 401 3 373 405 434 3 373 434 427 3 374 407 418 3 374 438 407 3 374 418 376 3 375 376 382 3 375 377 376 3 375 428 377 3 375 392 428 3 375 387 392 3 375 382 387 3 376 418 382 3 377 428 378 3 378 428 379 3 379 428 395 3 379 395 388 3 379 388 423 3 380 412 399 3 380 423 417 3 380 417 412 3 381 440 429 3 381 410 440 3 381 435 410 3 381 429 403 3 381 403 422 3 381 436 435 3 381 422 436 3 382 418 415 3 382 386 387 3 382 415 386 3 383 434 405 3 383 405 404 3 383 404 409 3 383 409 385 3 383 385 434 3 384 419 424 3 384 424 412 3 384 412 417 3 384 417 390 3 384 390 411 3 384 411 419 3 385 409 416 3 385 431 434 3 385 425 431 3 385 416 425 3 386 415 406 3 386 406 393 3 386 393 387 3 387 393 394 3 387 394 392 3 388 396 423 3 388 413 396 3 388 395 413 3 389 390 417 3 389 417 423 3 389 423 396 3 389 396 401 3 389 401 437 3 389 437 390 3 390 437 411 3 391 439 430 3 391 407 439 3 391 418 407 3 391 415 418 3 391 430 415 3 392 395 428 3 392 397 395 3 392 394 397 3 393 400 394 3 393 414 400 3 393 406 414 3 394 400 397 3 395 404 413 3 395 397 404 3 397 400 409 3 397 409 404 3 398 416 408 3 398 408 414 3 398 414 402 3 398 402 432 3 398 432 421 3 398 421 416 3 400 414 408 3 400 408 409 3 401 427 437 3 402 430 432 3 402 414 406 3 402 406 430 3 403 411 437 3 403 429 411 3 403 437 422 3 404 405 413 3 406 415 430 3 407 438 420 3 407 420 439 3 408 416 409 3 410 435 433 3 410 433 440 3 411 429 419 3 416 421 425 3 419 426 424 3 419 429 426 3 420 438 426 3 420 440 439 3 420 426 440 3 421 435 425 3 421 432 435 3 422 437 427 3 422 431 436 3 422 427 431 3 425 435 436 3 425 436 431 3 426 429 440 3 427 434 431 3 430 433 432 3 430 439 433 3 432 433 435 3 433 439 440 
521 130 3 441 491 498 3 441 498 490 3 441 490 442 3 441 485 491 3 441 442 485 3 442 490 447 3 442 451 485 3 442 478 451 3 442 472 478 3 442 447 472 3 443 499 500 3 443 502 499 3 443 444 487 3 443 491 444 3 443 487 502 3 443 500 498 3 443 498 491 3 444 491 454 3 444 504 487 3 444 454 504 3 445 450 446 3 445 446 489 3 445 489 486 3 445 493 450 3 445 486 492 3 445 492 493 3 446 472 447 3 446 447 494 3 446 450 472 3 446 494 489 3 447 490 494 3 448 480 502 3 448 502 456 3 448 456 449 3 448 449 462 3 448 469 480 3 448 470 469 3 448 462 470 3 449 476 457 3 449 504 476 3 449 456 504 3 449 457 462 3 450 478 472 3 450 493 459 3 450 459 478 3 451 452 482 3 451 482 485 3 451 478 452 3 452 455 482 3 452 459 455 3 452 478 459 3 453 492 496 3 453 497 484 3 453 484 492 3 453 496 497 3 454 482 507 3 454 485 482 3 454 491 485 3 454 476 504 3 454 507 476 3 455 507 482 3 455 464 458 3 455 477 464 3 455 459 477 3 455 458 507 3 456 487 504 3 456 502 487 3 457 476 507 3 457 463 462 3 457 458 463 3 457 507 458 3 458 465 463 3 458 464 465 3 459 493 484 3 459 484 477 3 460 494 490 3 460 490 500 3 460 501 503 3 460 503 506 3 460 500 501 3 460 506 494 3 461 471 488 3 461 488 466 3 461 466 480 3 461 480 475 3 461 479 471 3 461 475 479 3 462 473 470 3 462 463 473 3 463 465 473 3 464 477 484 3 464 497 465 3 464 484 497 3 465 481 473 3 465 497 481 3 466 501 499 3 466 499 483 3 466 483 480 3 466 488 501 3 467 503 488 3 467 488 471 3 467 486 495 3 467 495 503 3 467 505 486 3 467 471 505 3 468 475 470 3 468 470 473 3 468 473 481 3 468 479 475 3 468 474 479 3 468 481 474 3 469 475 480 3 469 470 475 3 471 479 505 3 474 505 479 3 474 496 505 3 474 497 496 3 474 481 497 3 480 483 502 3 483 499 502 3 484 493 492 3 486 489 495 3 486 496 492 3 486 505 496 3 488 503 501 3 489 494 495 3 490 498 500 3 494 506 495 3 495 506 503 3 499 501 500 
577 144 3 508 509 515 3 508 574 509 3 508 572 573 3 508 522 572 3 508 516 522 3 508 515 516 3 508 573 574 3 509 518 517 3 509 517 515 3 509 574 518 3 510 536 524 3 510 524 519 3 510 519 523 3 510 523 533 3 510 533 539 3 510 539 536 3 511 566 574 3 511 569 566 3 511 580 581 3 511 572 580 3 511 581 569 3 511 574 573 3 511 573 572 3 512 523 514 3 512 514 515 3 512 515 517 3 512 517 520 3 512 520 531 3 512 531 523 3 513 516 514 3 513 514 519 3 513 519 524 3 513 524 541 3 513 541 522 3 513 522 516 3 514 516 515 3 514 523 519 3 517 518 520 3 518 521 520 3 518 574 567 3 518 567 521 3 520 542 531 3 520 521 542 3 521 526 542 3 521 529 526 3 521 547 529 3 521 567 547 3 522 568 572 3 522 541 568 3 523 527 533 3 523 531 527 3 524 575 541 3 524 536 575 3 525 530 543 3 525 543 534 3 525 534 535 3 525 535 545 3 525 545 548 3 525 548 530 3 526 528 542 3 526 552 528 3 526 529 552 3 527 535 534 3 527 534 533 3 527 531 535 3 528 535 542 3 528 552 545 3 528 545 535 3 529 547 571 3 529 571 550 3 529 550 552 3 530 549 543 3 530 559 549 3 530 548 551 3 530 551 559 3 531 542 535 3 532 567 566 3 532 547 567 3 532 571 547 3 532 566 569 3 532 569 537 3 532 537 571 3 533 540 539 3 533 534 540 3 534 543 540 3 536 539 538 3 536 538 575 3 537 569 561 3 537 561 563 3 537 563 570 3 537 570 571 3 538 578 575 3 538 579 578 3 538 539 579 3 539 540 579 3 540 543 549 3 540 549 579 3 541 575 568 3 544 552 550 3 544 545 552 3 544 558 545 3 544 555 558 3 544 550 555 3 545 558 548 3 546 555 550 3 546 550 571 3 546 571 570 3 546 570 555 3 548 558 551 3 549 553 579 3 549 559 553 3 551 554 559 3 551 557 554 3 551 558 557 3 553 578 579 3 553 560 578 3 553 554 565 3 553 559 554 3 553 565 560 3 554 557 556 3 554 556 565 3 555 570 562 3 555 557 558 3 555 562 557 3 556 577 565 3 556 563 577 3 556 562 563 3 556 557 562 3 560 564 578 3 560 576 564 3 560 565 577 3 560 577 576 3 561 581 576 3 561 569 581 3 561 576 563 3 562 570 563 3 563 576 577 3 564 568 575 3 564 576 580 3 564 580 568 3 564 575 578 3 566 567 574 3 568 580 572 3 576 581 580 
481 120 3 582 627 587 3 582 589 604 3 582 588 589 3 582 587 588 3 582 583 627 3 582 632 583 3 582 604 632 3 583 590 615 3 583 632 590 3 583 616 627 3 583 615 631 3 583 631 616 3 584 616 585 3 584 585 607 3 584 607 608 3 584 608 587 3 584 587 616 3 585 639 607 3 585 592 629 3 585 616 592 3 585 629 639 3 586 593 592 3 586 592 615 3 586 615 594 3 586 594 595 3 586 595 593 3 587 627 616 3 587 598 588 3 587 608 598 3 588 598 633 3 588 633 589 3 589 633 602 3 589 602 591 3 589 591 604 3 590 606 615 3 590 632 604 3 590 604 613 3 590 613 606 3 591 630 618 3 591 643 630 3 591 618 604 3 591 602 643 3 592 593 629 3 592 616 631 3 592 631 615 3 593 595 626 3 593 626 624 3 593 624 629 3 594 620 595 3 594 603 620 3 594 606 603 3 594 615 606 3 595 620 626 3 596 611 612 3 596 612 625 3 596 630 619 3 596 619 623 3 596 623 621 3 596 621 611 3 596 625 630 3 597 636 628 3 597 628 605 3 597 605 617 3 597 617 609 3 597 609 614 3 597 614 636 3 598 634 599 3 598 608 634 3 598 599 633 3 599 634 637 3 599 637 610 3 599 642 633 3 599 610 642 3 600 637 638 3 600 635 637 3 600 636 635 3 600 601 636 3 600 638 601 3 601 638 639 3 601 639 624 3 601 624 628 3 601 628 636 3 602 622 643 3 602 633 642 3 602 642 622 3 603 606 612 3 603 612 611 3 603 611 620 3 604 618 613 3 605 626 620 3 605 620 611 3 605 611 621 3 605 628 626 3 605 621 617 3 606 613 612 3 607 634 608 3 607 638 634 3 607 639 638 3 609 641 614 3 609 617 640 3 609 640 641 3 610 637 635 3 610 641 642 3 610 635 614 3 610 614 641 3 612 613 625 3 613 618 630 3 613 630 625 3 614 635 636 3 617 621 623 3 617 623 640 3 619 622 640 3 619 640 623 3 619 643 622 3 619 630 643 3 622 641 640 3 622 642 641 3 624 626 628 3 624 639 629 3 634 638 637 
577 144 3 644 701 660 3 644 709 704 3 644 704 703 3 644 703 712 3 644 712 701 3 644 660 709 3 645 714 671 3 645 671 713 3 645 690 714 3 645 686 690 3 645 713 651 3 645 651 686 3 646 704 653 3 646 715 704 3 646 679 715 3 646 658 679 3 646 682 658 3 646 653 682 3 647 689 670 3 647 670 693 3 647 684 699 3 647 693 684 3 647 699 689 3 648 708 660 3 648 660 702 3 648 662 708 3 648 666 662 3 648 710 666 3 648 702 710 3 649 701 712 3 649 698 701 3 649 712 714 3 649 714 665 3 649 665 685 3 649 685 698 3 650 711 717 3 650 717 670 3 650 689 711 3 650 670 689 3 651 713 691 3 651 691 664 3 651 664 663 3 651 663 686 3 652 679 658 3 652 691 679 3 652 657 691 3 652 669 657 3 652 658 669 3 653 704 709 3 653 687 656 3 653 656 682 3 653 709 687 3 654 656 659 3 654 682 656 3 654 658 682 3 654 696 658 3 654 667 696 3 654 659 667 3 655 673 697 3 655 688 673 3 655 697 674 3 655 674 693 3 655 693 688 3 656 687 680 3 656 680 659 3 657 664 691 3 657 673 664 3 657 697 673 3 657 669 697 3 658 696 669 3 659 668 667 3 659 680 668 3 660 708 709 3 660 701 698 3 660 698 702 3 661 666 710 3 661 680 666 3 661 668 680 3 661 678 668 3 661 700 678 3 661 710 700 3 662 687 708 3 662 666 687 3 663 673 694 3 663 694 672 3 663 672 686 3 663 664 673 3 665 714 690 3 665 692 716 3 665 683 692 3 665 690 683 3 665 716 685 3 666 680 687 3 667 675 696 3 667 684 675 3 667 668 676 3 667 676 684 3 668 678 676 3 669 696 674 3 669 674 697 3 670 717 681 3 670 681 688 3 670 688 693 3 671 712 703 3 671 703 715 3 671 714 712 3 671 715 713 3 672 683 686 3 672 694 681 3 672 681 677 3 672 677 683 3 673 688 694 3 674 675 693 3 674 696 675 3 675 684 693 3 676 678 699 3 676 699 684 3 677 692 683 3 677 717 692 3 677 681 717 3 678 700 699 3 679 713 715 3 679 691 713 3 681 694 688 3 683 690 686 3 685 695 698 3 685 706 695 3 685 716 706 3 687 709 708 3 689 705 711 3 689 699 705 3 692 717 716 3 695 702 698 3 695 706 707 3 695 707 702 3 699 700 705 3 700 710 707 3 700 707 705 3 702 707 710 3 703 704 715 3 705 707 711 3 706 711 707 3 706 716 711 3 711 716 717 
649 162 3 718 729 788 3 718 788 720 3 718 720 790 3 718 794 729 3 718 730 794 3 718 790 730 3 719 789 796 3 719 795 789 3 719 722 795 3 719 723 722 3 719 733 723 3 719 796 733 3 720 770 790 3 720 784 770 3 720 788 793 3 720 793 784 3 721 792 739 3 721 739 777 3 721 777 740 3 721 753 792 3 721 740 753 3 722 731 795 3 722 732 754 3 722 723 732 3 722 754 731 3 723 733 761 3 723 761 732 3 724 727 733 3 724 733 794 3 724 794 730 3 724 775 727 3 724 730 775 3 725 781 728 3 725 745 781 3 725 757 745 3 725 742 757 3 725 728 742 3 726 766 763 3 726 740 766 3 726 787 753 3 726 753 740 3 726 780 787 3 726 756 780 3 726 763 756 3 727 761 733 3 727 741 736 3 727 736 761 3 727 775 741 3 728 781 783 3 728 783 747 3 728 747 742 3 729 794 796 3 729 796 744 3 729 744 788 3 730 750 775 3 730 790 750 3 731 746 795 3 731 735 746 3 731 754 783 3 731 781 735 3 731 783 781 3 732 783 754 3 732 738 783 3 732 734 738 3 732 761 734 3 733 796 794 3 734 761 736 3 734 765 738 3 734 737 765 3 734 736 737 3 735 739 746 3 735 777 739 3 735 745 777 3 735 781 745 3 736 743 737 3 736 741 743 3 737 779 765 3 737 743 778 3 737 778 779 3 738 747 783 3 738 765 747 3 739 792 791 3 739 791 746 3 740 777 759 3 740 759 766 3 741 760 743 3 741 775 768 3 741 768 760 3 742 769 757 3 742 747 758 3 742 758 764 3 742 764 769 3 743 760 778 3 744 789 791 3 744 796 789 3 744 785 788 3 744 792 785 3 744 791 792 3 745 757 759 3 745 759 777 3 746 791 795 3 747 765 758 3 748 749 752 3 748 752 772 3 748 772 767 3 748 767 800 3 748 800 749 3 749 773 752 3 749 756 773 3 749 751 756 3 749 797 751 3 749 800 797 3 750 768 775 3 750 790 770 3 750 770 755 3 750 755 768 3 751 780 756 3 751 798 780 3 751 799 798 3 751 797 799 3 752 774 772 3 752 773 774 3 753 786 792 3 753 787 786 3 755 770 799 3 755 776 768 3 755 797 776 3 755 799 797 3 756 763 773 3 757 782 759 3 757 769 782 3 758 765 779 3 758 779 764 3 759 782 766 3 760 767 778 3 760 800 767 3 760 776 800 3 760 768 776 3 762 793 786 3 762 784 793 3 762 798 784 3 762 787 798 3 762 786 787 3 763 766 771 3 763 771 773 3 764 774 769 3 764 772 774 3 764 779 772 3 766 782 771 3 767 772 779 3 767 779 778 3 769 774 771 3 769 771 782 3 770 784 799 3 771 774 773 3 776 797 800 3 780 798 787 3 784 798 799 3 785 793 788 3 785 786 793 3 785 792 786 3 789 795 791 
537 134 3 801 802 859 3 801 805 802 3 801 804 805 3 801 860 804 3 801 858 860 3 801 859 855 3 801 855 858 3 802 803 859 3 802 805 809 3 802 809 833 3 802 833 803 3 803 844 859 3 803 833 844 3 804 812 805 3 804 822 812 3 804 860 822 3 805 812 809 3 806 808 833 3 806 833 809 3 806 809 835 3 806 835 813 3 806 813 807 3 806 807 808 3 807 827 808 3 807 838 827 3 807 853 838 3 807 813 853 3 808 810 844 3 808 844 833 3 808 827 810 3 809 812 835 3 810 866 844 3 810 827 815 3 810 811 866 3 810 815 811 3 811 841 866 3 811 815 828 3 811 828 841 3 812 822 817 3 812 817 835 3 813 835 818 3 813 824 853 3 813 818 824 3 814 842 823 3 814 856 842 3 814 861 856 3 814 823 843 3 814 843 867 3 814 867 861 3 815 825 828 3 815 827 825 3 816 826 841 3 816 841 828 3 816 867 826 3 816 861 867 3 816 828 861 3 817 851 818 3 817 820 851 3 817 822 820 3 817 818 835 3 818 851 824 3 819 837 850 3 819 850 865 3 819 865 840 3 819 847 837 3 819 840 847 3 820 830 851 3 820 850 830 3 820 831 850 3 820 822 831 3 821 858 864 3 821 831 860 3 821 860 858 3 821 865 831 3 821 840 865 3 821 864 840 3 822 860 831 3 823 848 843 3 823 847 848 3 823 837 847 3 823 842 837 3 824 851 829 3 824 829 853 3 825 827 838 3 825 838 834 3 825 834 836 3 825 836 828 3 826 868 846 3 826 846 841 3 826 852 868 3 826 869 852 3 826 867 869 3 828 836 861 3 829 851 830 3 829 839 853 3 829 849 839 3 829 832 849 3 829 830 832 3 830 850 832 3 831 865 850 3 832 842 849 3 832 837 842 3 832 850 837 3 834 838 839 3 834 856 836 3 834 849 856 3 834 839 849 3 836 856 861 3 838 853 839 3 840 848 847 3 840 854 848 3 840 864 854 3 841 846 866 3 842 856 849 3 843 848 854 3 843 869 867 3 843 854 869 3 844 866 857 3 844 857 859 3 845 864 862 3 845 862 863 3 845 854 864 3 845 863 852 3 845 852 869 3 845 869 854 3 846 868 866 3 852 863 868 3 855 863 858 3 855 859 857 3 855 857 868 3 855 868 863 3 857 866 868 3 858 862 864 3 858 863 862 
505 126 3 870 912 875 3 870 923 912 3 870 933 923 3 870 871 910 3 870 875 930 3 870 930 871 3 870 910 933 3 871 874 901 3 871 901 910 3 871 931 874 3 871 930 925 3 871 925 931 3 872 901 932 3 872 895 887 3 872 879 901 3 872 886 879 3 872 887 886 3 872 932 895 3 873 906 910 3 873 910 901 3 873 901 879 3 873 879 877 3 873 877 906 3 874 931 878 3 874 932 901 3 874 921 895 3 874 878 921 3 874 895 932 3 875 912 900 3 875 876 925 3 875 881 876 3 875 900 881 3 875 925 930 3 876 883 878 3 876 911 883 3 876 881 911 3 876 878 925 3 877 927 906 3 877 885 927 3 877 879 885 3 878 883 884 3 878 884 921 3 878 931 925 3 879 886 885 3 880 883 911 3 880 884 883 3 880 888 884 3 880 896 888 3 880 891 896 3 880 911 891 3 881 900 920 3 881 920 911 3 882 909 888 3 882 888 896 3 882 896 934 3 882 893 909 3 882 903 893 3 882 934 903 3 884 888 889 3 884 889 895 3 884 895 921 3 885 886 894 3 885 897 927 3 885 894 897 3 886 887 890 3 886 890 894 3 887 909 890 3 887 889 909 3 887 895 889 3 888 909 889 3 890 899 894 3 890 893 899 3 890 909 893 3 891 911 919 3 891 919 929 3 891 929 896 3 892 917 905 3 892 905 904 3 892 904 934 3 892 902 917 3 892 934 922 3 892 922 915 3 892 915 902 3 893 903 904 3 893 904 899 3 894 899 898 3 894 898 897 3 896 929 934 3 897 928 927 3 897 898 928 3 898 899 905 3 898 917 928 3 898 905 917 3 899 904 905 3 900 912 914 3 900 914 918 3 900 918 920 3 902 924 907 3 902 926 924 3 902 915 926 3 902 907 917 3 903 934 904 3 906 908 923 3 906 913 908 3 906 927 913 3 906 933 910 3 906 923 933 3 907 928 917 3 907 913 928 3 907 924 913 3 908 914 923 3 908 913 924 3 908 924 914 3 911 920 919 3 912 923 914 3 913 927 928 3 914 924 926 3 914 926 918 3 915 916 926 3 915 922 916 3 916 920 918 3 916 918 926 3 916 919 920 3 916 929 919 3 916 922 929 3 922 934 929 
529 132 3 935 940 984 3 935 984 942 3 935 942 936 3 935 936 937 3 935 937 940 3 936 955 937 3 936 983 955 3 936 946 983 3 936 942 946 3 937 943 940 3 937 982 943 3 937 955 982 3 938 991 944 3 938 944 982 3 938 982 947 3 938 947 959 3 938 959 964 3 938 964 957 3 938 957 991 3 939 998 979 3 939 979 974 3 939 976 993 3 939 974 976 3 939 993 998 3 940 952 978 3 940 978 984 3 940 943 941 3 940 941 952 3 941 943 944 3 941 953 952 3 941 965 953 3 941 991 965 3 941 944 991 3 942 945 946 3 942 969 945 3 942 954 969 3 942 984 989 3 942 989 954 3 943 982 944 3 945 969 950 3 945 950 956 3 945 956 946 3 946 956 983 3 947 982 955 3 947 949 959 3 947 955 949 3 948 951 978 3 948 961 975 3 948 1001 961 3 948 978 973 3 948 975 951 3 948 973 1001 3 949 955 983 3 949 994 959 3 949 960 994 3 949 983 960 3 950 963 956 3 950 974 963 3 950 980 974 3 950 969 980 3 951 989 984 3 951 984 978 3 951 962 954 3 951 975 962 3 951 954 989 3 952 973 978 3 952 953 973 3 953 965 967 3 953 967 973 3 954 980 969 3 954 962 980 3 956 958 983 3 956 977 958 3 956 963 977 3 957 987 991 3 957 992 987 3 957 964 992 3 958 960 983 3 958 988 960 3 958 977 988 3 959 994 964 3 960 988 994 3 961 1001 1002 3 961 966 962 3 961 995 966 3 961 1002 995 3 961 962 975 3 962 966 968 3 962 968 980 3 963 974 970 3 963 970 977 3 964 990 992 3 964 994 990 3 965 991 987 3 965 986 967 3 965 987 986 3 966 995 976 3 966 976 968 3 967 971 973 3 967 986 971 3 968 974 980 3 968 976 974 3 970 974 979 3 970 979 981 3 970 981 977 3 971 1002 1001 3 971 996 1002 3 971 1001 973 3 971 986 996 3 972 998 993 3 972 996 997 3 972 993 996 3 972 997 999 3 972 999 985 3 972 985 998 3 976 995 993 3 977 981 988 3 979 1000 981 3 979 998 1000 3 981 990 988 3 981 1000 990 3 985 999 1000 3 985 1000 998 3 986 987 997 3 986 997 996 3 987 992 997 3 988 990 994 3 990 999 992 3 990 1000 999 3 992 999 997 3 993 995 1002 3 993 1002 996 
513 128 3 1003 1006 1061 3 1003 1061 1041 3 1003 1041 1004 3 1003 1004 1005 3 1003 1005 1006 3 1004 1041 1051 3 1004 1051 1042 3 1004 1042 1046 3 1004 1046 1005 3 1005 1046 1019 3 1005 1019 1066 3 1005 1066 1006 3 1006 1037 1061 3 1006 1066 1068 3 1006 1068 1037 3 1007 1043 1038 3 1007 1038 1029 3 1007 1029 1030 3 1007 1030 1031 3 1007 1031 1047 3 1007 1047 1043 3 1008 1033 1055 3 1008 1055 1052 3 1008 1052 1015 3 1008 1015 1020 3 1008 1065 1033 3 1008 1020 1065 3 1009 1014 1010 3 1009 1068 1016 3 1009 1010 1068 3 1009 1016 1028 3 1009 1028 1057 3 1009 1057 1014 3 1010 1062 1037 3 1010 1011 1062 3 1010 1014 1011 3 1010 1037 1068 3 1011 1015 1052 3 1011 1052 1062 3 1011 1014 1015 3 1012 1036 1026 3 1012 1027 1036 3 1012 1026 1024 3 1012 1024 1056 3 1012 1056 1021 3 1012 1021 1027 3 1013 1016 1068 3 1013 1068 1066 3 1013 1066 1035 3 1013 1035 1048 3 1013 1048 1016 3 1014 1057 1020 3 1014 1020 1015 3 1016 1029 1028 3 1016 1048 1029 3 1017 1058 1059 3 1017 1025 1058 3 1017 1031 1025 3 1017 1047 1031 3 1017 1022 1047 3 1017 1059 1022 3 1018 1019 1058 3 1018 1035 1019 3 1018 1023 1035 3 1018 1025 1023 3 1018 1058 1025 3 1019 1046 1058 3 1019 1035 1066 3 1020 1039 1065 3 1020 1057 1039 3 1021 1056 1062 3 1021 1062 1052 3 1021 1055 1027 3 1021 1052 1055 3 1022 1059 1054 3 1022 1054 1049 3 1022 1049 1047 3 1023 1048 1035 3 1023 1030 1048 3 1023 1025 1030 3 1024 1041 1056 3 1024 1051 1041 3 1024 1026 1051 3 1025 1031 1030 3 1026 1036 1050 3 1026 1060 1051 3 1026 1050 1060 3 1027 1055 1064 3 1027 1064 1036 3 1028 1038 1057 3 1028 1029 1038 3 1029 1048 1030 3 1032 1065 1044 3 1032 1044 1040 3 1032 1034 1065 3 1032 1040 1034 3 1033 1064 1055 3 1033 1034 1064 3 1033 1065 1034 3 1034 1040 1053 3 1034 1053 1064 3 1036 1064 1053 3 1036 1053 1050 3 1037 1062 1061 3 1038 1039 1057 3 1038 1067 1039 3 1038 1043 1067 3 1039 1044 1065 3 1039 1067 1044 3 1040 1063 1053 3 1040 1044 1045 3 1040 1045 1063 3 1041 1061 1056 3 1042 1051 1060 3 1042 1058 1046 3 1042 1059 1058 3 1042 1060 1059 3 1043 1047 1045 3 1043 1045 1044 3 1043 1044 1067 3 1045 1047 1049 3 1045 1049 1063 3 1049 1054 1063 3 1050 1063 1054 3 1050 1053 1063 3 1050 1054 1060 3 1054 1059 1060 3 1056 1061 1062 
553 138 3 1069 1071 1123 3 1069 1093 1071 3 1069 1087 1093 3 1069 1128 1087 3 1069 1127 1128 3 1069 1123 1127 3 1070 1090 1079 3 1070 1102 1090 3 1070 1085 1102 3 1070 1099 1085 3 1070 1097 1099 3 1070 1105 1097 3 1070 1079 1105 3 1071 1093 1121 3 1071 1121 1074 3 1071 1074 1073 3 1071 1073 1076 3 1071 1076 1123 3 1072 1127 1109 3 1072 1109 1122 3 1072 1125 1127 3 1072 1129 1125 3 1072 1101 1129 3 1072 1122 1101 3 1073 1095 1076 3 1073 1078 1095 3 1073 1074 1078 3 1074 1077 1078 3 1074 1112 1077 3 1074 1075 1112 3 1074 1121 1075 3 1075 1130 1111 3 1075 1121 1130 3 1075 1111 1112 3 1076 1095 1082 3 1076 1082 1123 3 1077 1083 1078 3 1077 1089 1083 3 1077 1099 1089 3 1077 1112 1099 3 1078 1083 1095 3 1079 1090 1100 3 1079 1100 1110 3 1079 1114 1105 3 1079 1110 1114 3 1080 1137 1087 3 1080 1135 1137 3 1080 1092 1135 3 1080 1134 1092 3 1080 1124 1134 3 1080 1087 1124 3 1081 1115 1113 3 1081 1113 1106 3 1081 1106 1107 3 1081 1107 1114 3 1081 1114 1116 3 1081 1116 1118 3 1081 1118 1115 3 1082 1109 1123 3 1082 1094 1109 3 1082 1084 1094 3 1082 1095 1084 3 1083 1084 1095 3 1083 1088 1084 3 1083 1089 1088 3 1084 1088 1098 3 1084 1098 1094 3 1085 1111 1102 3 1085 1099 1112 3 1085 1112 1111 3 1086 1089 1091 3 1086 1088 1089 3 1086 1103 1088 3 1086 1091 1104 3 1086 1106 1103 3 1086 1104 1106 3 1087 1137 1093 3 1087 1128 1124 3 1088 1139 1098 3 1088 1103 1139 3 1089 1099 1091 3 1090 1135 1100 3 1090 1102 1135 3 1091 1099 1097 3 1091 1097 1104 3 1092 1110 1100 3 1092 1100 1135 3 1092 1117 1110 3 1092 1134 1117 3 1093 1130 1121 3 1093 1137 1130 3 1094 1098 1122 3 1094 1122 1109 3 1096 1102 1111 3 1096 1111 1130 3 1096 1130 1137 3 1096 1135 1102 3 1096 1137 1135 3 1097 1105 1104 3 1098 1139 1108 3 1098 1108 1138 3 1098 1138 1122 3 1101 1122 1138 3 1101 1138 1108 3 1101 1136 1129 3 1101 1108 1136 3 1103 1108 1139 3 1103 1113 1108 3 1103 1106 1113 3 1104 1107 1106 3 1104 1105 1107 3 1105 1114 1107 3 1108 1113 1136 3 1109 1127 1123 3 1110 1117 1114 3 1113 1115 1136 3 1114 1117 1116 3 1115 1118 1133 3 1115 1133 1136 3 1116 1119 1118 3 1116 1117 1119 3 1117 1134 1119 3 1118 1120 1133 3 1118 1119 1120 3 1119 1134 1132 3 1119 1132 1120 3 1120 1131 1133 3 1120 1132 1131 3 1124 1128 1126 3 1124 1132 1134 3 1124 1126 1132 3 1125 1128 1127 3 1125 1126 1128 3 1125 1131 1126 3 1125 1129 1131 3 1126 1131 1132 3 1129 1133 1131 3 1129 1136 1133 
545 136 3 1140 1142 1187 3 1140 1141 1142 3 1140 1176 1141 3 1140 1193 1176 3 1140 1187 1193 3 1141 1176 1165 3 1141 1165 1143 3 1141 1143 1142 3 1142 1146 1187 3 1142 1143 1168 3 1142 1168 1146 3 1143 1180 1168 3 1143 1191 1180 3 1143 1165 1191 3 1144 1191 1165 3 1144 1165 1148 3 1144 1148 1159 3 1144 1159 1150 3 1144 1150 1186 3 1144 1186 1191 3 1145 1176 1193 3 1145 1147 1176 3 1145 1155 1147 3 1145 1153 1155 3 1145 1193 1153 3 1146 1154 1187 3 1146 1168 1195 3 1146 1195 1154 3 1147 1155 1192 3 1147 1192 1148 3 1147 1148 1176 3 1148 1165 1176 3 1148 1192 1159 3 1149 1191 1186 3 1149 1180 1191 3 1149 1152 1180 3 1149 1184 1152 3 1149 1186 1184 3 1150 1179 1186 3 1150 1151 1179 3 1150 1159 1151 3 1151 1159 1160 3 1151 1166 1179 3 1151 1173 1166 3 1151 1160 1173 3 1152 1174 1180 3 1152 1209 1174 3 1152 1184 1161 3 1152 1161 1209 3 1153 1193 1183 3 1153 1183 1162 3 1153 1162 1157 3 1153 1157 1155 3 1154 1203 1187 3 1154 1195 1201 3 1154 1201 1203 3 1155 1157 1163 3 1155 1163 1192 3 1156 1209 1161 3 1156 1161 1190 3 1156 1190 1175 3 1156 1175 1204 3 1156 1204 1209 3 1157 1206 1163 3 1157 1162 1206 3 1158 1207 1204 3 1158 1205 1207 3 1158 1167 1205 3 1158 1196 1167 3 1158 1204 1196 3 1159 1192 1160 3 1160 1192 1164 3 1160 1170 1173 3 1160 1169 1170 3 1160 1164 1169 3 1161 1184 1190 3 1162 1177 1206 3 1162 1183 1177 3 1163 1178 1164 3 1163 1164 1192 3 1163 1206 1178 3 1164 1178 1169 3 1166 1190 1179 3 1166 1175 1190 3 1166 1199 1175 3 1166 1173 1199 3 1167 1198 1205 3 1167 1196 1199 3 1167 1199 1198 3 1168 1181 1195 3 1168 1174 1181 3 1168 1180 1174 3 1169 1208 1170 3 1169 1178 1208 3 1170 1199 1173 3 1170 1198 1199 3 1170 1208 1198 3 1171 1194 1188 3 1171 1206 1177 3 1171 1177 1194 3 1171 1208 1206 3 1171 1205 1208 3 1171 1188 1205 3 1172 1188 1194 3 1172 1194 1197 3 1172 1197 1189 3 1172 1189 1188 3 1174 1200 1181 3 1174 1209 1200 3 1175 1196 1204 3 1175 1199 1196 3 1177 1183 1202 3 1177 1202 1194 3 1178 1206 1208 3 1179 1184 1186 3 1179 1190 1184 3 1181 1185 1195 3 1181 1200 1185 3 1182 1189 1185 3 1182 1185 1200 3 1182 1207 1189 3 1182 1200 1209 3 1182 1209 1204 3 1182 1204 1207 3 1183 1187 1203 3 1183 1193 1187 3 1183 1203 1202 3 1185 1201 1195 3 1185 1189 1201 3 1188 1189 1207 3 1188 1207 1205 3 1189 1197 1201 3 1194 1202 1197 3 1197 1202 1203 3 1197 1203 1201 3 1198 1208 1205 

CELL_TYPES 17
42
42
42
42
42
42
42
42
42
42
42
42
42
42
42
42
42

CELL_DATA 1
FIELD FieldData 2
Cell_id 1 1 int
1 2 3 4 5 6
7 8 9 10 11 12
13 14 15 16 17
METADATA
INFORMATION 0

Cell_type_id 1 1 int
0 0 0 0 0 0
0 0 0 0 0 0
0 0 0 0 0
METADATA
INFORMATION 0

